<svg width="64" height="64" viewBox="0 0 64 64" fill="none" xmlns="http://www.w3.org/2000/svg" role="img" aria-label="Bursa Karavanlı Bahçe favicon">
  <title>Bursa Karavanlı Bahçe — Favicon</title>

  <!-- Rounded green tile -->
  <rect width="64" height="64" rx="13" fill="#3E5F44"/>

  <!-- Icon, simplified for small sizes -->
  <g transform="translate(8,8) scale(0.48)">
    <circle cx="50" cy="50" r="45" fill="none" stroke="#F5F1E8" stroke-width="2.2"/>
    <!-- sun -->
    <path d="M25.5 54 A16.5 16.5 0 0 0 58.5 54 Z" fill="#D98324"/>
    <!-- beige ridge band over sun -->
    <path d="M25.5 54 A16.5 16.5 0 0 0 58.5 54 L53 54 A11 11 0 0 1 31 54 Z" fill="#F5F1E8"/>
    <line x1="9" y1="54" x2="91" y2="54" stroke="#F5F1E8" stroke-width="2.2" stroke-linecap="round"/>
    <!-- caravan (simplified: body + wheels, no hitch at small size) -->
    <path d="M63 53 L63 48 Q63 45.8 65.2 45.8 L75.5 45.8 Q77.7 45.8 77.7 48 L77.7 53 Z"
          fill="none" stroke="#F5F1E8" stroke-width="2.2" stroke-linejoin="round"/>
    <circle cx="67" cy="53.6" r="2" fill="#F5F1E8"/>
    <circle cx="74" cy="53.6" r="2" fill="#F5F1E8"/>
  </g>
</svg>
