<svg width="16" height="16" viewBox="0 0 16 16" fill="none" xmlns="http://www.w3.org/2000/svg">
<path d="M0 8C0 3.58172 3.58172 0 8 0C12.4183 0 16 3.58172 16 8C16 12.4183 12.4183 16 8 16C3.58172 16 0 12.4183 0 8Z" fill="#D98324"/>
<path d="M7.2284 8.2693L7.03415 7.81768L7.27156 7.84425L6.91545 7.15355L7.14207 7.1934C7.03415 7.00301 6.82264 6.61692 6.83991 6.59567H7.00178C6.8523 6.21912 6.56641 5.46625 6.57856 5.36818C6.45403 5.77938 6.20138 6.57714 6.15177 6.59545L6.30034 6.58239L6.01977 7.16683H6.14927C6.25358 6.92331 6.46221 6.43362 6.46221 6.423L6.32193 6.43628L6.57013 5.71901C6.65286 5.9581 6.82049 6.43894 6.82912 6.44956L6.67804 6.423C6.76077 6.62224 6.9284 7.02338 6.93703 7.034L6.76437 7.02072C6.86869 7.24653 7.07948 7.7008 7.08811 7.71142L6.87228 7.69814C6.96581 7.89738 7.15718 8.30118 7.17444 8.32243L7.2284 8.2693Z" fill="#213127"/>
<path d="M5.61751 8.10728L5.40987 7.63339L5.66366 7.66127L5.28298 6.9365L5.52523 6.97831C5.40987 6.77853 5.18378 6.3734 5.20223 6.3511H5.37527C5.21547 5.95598 4.90987 5.16597 4.92286 5.06306C4.78974 5.49455 4.51967 6.33166 4.46663 6.35087L4.62546 6.33717L4.32553 6.95044H4.46396C4.57547 6.69491 4.79849 6.18106 4.79849 6.16991L4.64853 6.18385L4.91385 5.4312C5.00228 5.68208 5.18147 6.18664 5.1907 6.19779L5.0292 6.16991C5.11764 6.37898 5.29683 6.7999 5.30605 6.81106L5.12148 6.79712C5.233 7.03406 5.45832 7.51074 5.46755 7.52189L5.23684 7.50795C5.33682 7.71702 5.54138 8.14073 5.55984 8.16304L5.61751 8.10728Z" fill="#213127"/>
<path d="M7.58451 8.45526L7.74638 8.12319L7.56293 8.13647L7.83271 7.53875H7.68163L7.94063 7.00744L7.77876 7.02072L8.00537 6.40971L8.2212 7.02072L8.08091 7.00744C8.15974 7.18826 8.31933 7.5492 8.32911 7.55203L8.15645 7.52546L8.44782 8.13647L8.26437 8.12319L8.38307 8.40212L8.49098 8.46854L8.40465 8.24273L8.62048 8.2693C8.51616 8.07891 8.31185 7.69017 8.32911 7.65829H8.50178C8.40825 7.50333 8.22336 7.18808 8.23199 7.16683H8.37228C8.27156 6.92331 8.05717 6.36455 8.00537 6.07765C7.90825 6.41414 7.6989 7.09245 7.63847 7.1137H7.77876L7.49818 7.65829H7.68163L7.35789 8.2693L7.58451 8.24273L7.51976 8.42869L7.58451 8.45526Z" fill="#213127"/>
<path d="M9.88307 7.59188L9.79673 7.37935L9.9694 7.4192L9.68882 6.79491H9.82911C9.7008 6.46285 9.46236 5.81818 9.449 5.678C9.40115 5.85118 9.04973 6.79491 9.03055 6.79491H9.19242L8.86868 7.37935H9.08451L8.74998 8.04349H8.9658L8.74998 8.50839H8.86868L9.12767 7.91066C9.06292 7.91952 8.93127 7.93192 8.92264 7.91066C9.02695 7.72913 9.23343 7.34216 9.22479 7.24653L9.06292 7.25981L9.3435 6.67537L9.19242 6.68865L9.42983 5.9581L9.67803 6.67537L9.53774 6.66209L9.80753 7.27309L9.63486 7.23324L9.82911 7.69814L9.88307 7.59188Z" fill="#213127"/>
<path d="M10.8867 9.79681L11.178 9.15924L10.9622 9.18581C11.0629 8.96 11.2644 8.50573 11.2644 8.4951L11.0917 8.50839C11.1744 8.318 11.3421 7.92129 11.3507 7.85753L11.2212 7.87082L11.437 7.1934L11.6636 7.85753L11.5018 7.84425C11.5884 8.05235 11.7649 8.47385 11.7774 8.4951C11.7251 8.49068 11.6183 8.47916 11.6097 8.46854C11.7068 8.69434 11.9054 9.15393 11.9226 9.18581L11.7284 9.15924C11.8003 9.34077 11.968 9.73837 12.0629 9.87651H11.8579L12.0197 10.2617L12.1061 10.2351L11.9982 9.95621L12.16 9.90307C12.0629 9.71269 11.8708 9.3266 11.8795 9.30535L12.0953 9.31863L11.75 8.61465L11.955 8.62793C11.8507 8.41983 11.6442 8.00099 11.6528 7.99036L11.8363 8.00364C11.7068 7.72028 11.4435 7.10042 11.4262 6.88789C11.3219 7.25538 11.1025 7.99302 11.0593 8.00364L11.2212 7.97708C11.1313 8.1896 10.9449 8.61465 10.919 8.61465H11.1241C11.0198 8.83603 10.8046 9.28144 10.7787 9.29207L11.0162 9.27879L10.8111 9.75696L10.8867 9.79681Z" fill="#213127"/>
<path d="M9.42983 9.81009L9.50537 9.84994L9.79673 9.21237L9.58091 9.23894C9.68163 9.01313 9.88307 8.55886 9.88307 8.54823L9.7104 8.56152C9.79314 8.37113 9.96076 7.97442 9.9694 7.91066L9.8399 7.92395L10.0557 7.24653L10.2823 7.91066L10.1205 7.89738C10.2071 8.10548 10.3836 8.52698 10.3962 8.54823C10.3438 8.54381 10.237 8.5323 10.2284 8.52167C10.3255 8.74748 10.5241 9.20706 10.5413 9.23894L10.3471 9.21237C10.397 9.33838 10.4931 9.5685 10.5789 9.74368L10.6588 9.71712C10.5745 9.54609 10.4925 9.37253 10.4982 9.35848L10.714 9.37176L10.3687 8.66778L10.5737 8.68106C10.4694 8.47297 10.2629 8.05412 10.2716 8.04349L10.455 8.05677C10.3255 7.77341 10.0622 7.15355 10.0449 6.94102C9.94062 7.30851 9.7212 8.04615 9.67803 8.05677L9.8399 8.03021C9.74997 8.24273 9.56364 8.66778 9.53774 8.66778H9.74278C9.63846 8.88916 9.42336 9.33457 9.39746 9.3452L9.63486 9.33192L9.42983 9.81009Z" fill="#213127"/>
<path d="M6.61329 8.53495L6.55934 8.37556L6.71041 8.38884L6.47301 7.92395C6.51617 7.91952 6.60466 7.91332 6.61329 7.92395C6.62408 7.93723 6.33272 7.29966 6.27876 6.94102C6.18883 7.25095 5.99387 7.87613 5.93344 7.89738H6.06294C5.99819 8.05677 5.8579 8.37556 5.81473 8.37556H5.99819L5.94423 8.48182L6.04135 8.4951L6.13847 8.25601H5.99819C6.07013 8.1099 6.21401 7.80971 6.21401 7.77784H6.1061L6.27876 7.25981L6.45142 7.77784H6.33272C6.39387 7.92395 6.52049 8.22414 6.53775 8.25601H6.40826L6.52696 8.56152L6.61329 8.53495Z" fill="#213127"/>
<path d="M4.08812 7.68486L4.03417 7.52546L4.18524 7.53875L3.94783 7.07385C3.991 7.06942 4.07949 7.06322 4.08812 7.07385C4.09891 7.08713 3.80755 6.44956 3.75359 6.09093C3.66366 6.40086 3.4687 7.02603 3.40827 7.04729H3.53776C3.47302 7.20668 3.33273 7.52546 3.28956 7.52546H3.47302L3.41906 7.63173L3.51618 7.64501L3.6133 7.40592H3.47302C3.54496 7.25981 3.68884 6.95962 3.68884 6.92774H3.58093L3.75359 6.40971L3.92625 6.92774H3.80755C3.8687 7.07385 3.99532 7.37404 4.01258 7.40592H3.88309L4.00179 7.71142L4.08812 7.68486Z" fill="#213127"/>
<path d="M3.93704 10.1687L4.1205 9.79681L3.91546 9.82338L4.24999 9.09283H4.04496L4.35791 8.40212L4.18524 8.42869L4.45503 7.76455H4.32553L4.53057 7.14026L4.74639 7.76455H4.60611L4.8651 8.42869L4.71402 8.40212L4.80035 8.66778L4.8651 8.62793L4.84351 8.52167L5.07013 8.56152C4.96222 8.36228 4.74639 7.95317 4.74639 7.91066L4.91905 7.93723C4.78365 7.6039 4.52761 6.93152 4.54876 6.81823C4.43251 7.16231 4.20234 7.83097 4.18524 7.83097L4.13129 7.92395L4.31474 7.89738L4.02337 8.54823L4.20683 8.53495C4.10611 8.75633 3.89819 9.20175 3.8723 9.21237H4.08812L3.77517 9.92964L3.93704 9.94292L3.85071 10.1687H3.93704Z" fill="#213127"/>
<path d="M12.5873 7.83989L12.5249 7.65437L12.6996 7.66983L12.425 7.12872C12.4749 7.12357 12.5773 7.11636 12.5873 7.12872C12.5997 7.14418 12.2627 6.40209 12.2003 5.98467C12.0963 6.34541 11.8708 7.07307 11.8009 7.0978H11.9507C11.8758 7.28333 11.7136 7.65437 11.6636 7.65437H11.8758L11.8134 7.77805L11.9257 7.79351L12.0381 7.51523H11.8758C11.959 7.34517 12.1255 6.99577 12.1255 6.95866H12.0006L12.2003 6.35571L12.4 6.95866H12.2627C12.3335 7.12872 12.4799 7.47813 12.4999 7.51523H12.3501L12.4874 7.87082L12.5873 7.83989Z" fill="#213127"/>
<path d="M11.2187 7.39329L11.1394 7.15812L11.3615 7.17772L11.0125 6.49181C11.076 6.48527 11.206 6.47613 11.2187 6.49181C11.2346 6.5114 10.8063 5.57072 10.727 5.04159C10.5948 5.49887 10.3082 6.42126 10.2194 6.45261H10.4098C10.3146 6.68778 10.1084 7.15812 10.0449 7.15812H10.3146L10.2353 7.3149L10.378 7.3345L10.5208 6.98174H10.3146C10.4203 6.76617 10.6318 6.32327 10.6318 6.27623H10.4732L10.727 5.51193L10.9808 6.27623H10.8063C10.8962 6.49181 11.0823 6.93471 11.1077 6.98174H10.9173L11.0918 7.43249L11.2187 7.39329Z" fill="#213127"/>
<path d="M6.20322 10.5805C6.22121 10.5938 6.24639 10.631 6.20322 10.6735H5.82553C5.81114 10.6558 5.79099 10.6124 5.82553 10.5805H6.20322Z" fill="#213127"/>
<path d="M6.20322 10.4477C6.22121 10.4609 6.24639 10.4955 6.20322 10.5274H5.83632C5.81833 10.5141 5.79315 10.4795 5.83632 10.4477H6.20322Z" fill="#213127"/>
<path d="M6.20322 10.3148C6.21761 10.3281 6.23776 10.36 6.20322 10.3813H5.84711C5.82553 10.3724 5.79531 10.3467 5.84711 10.3148H6.20322Z" fill="#213127"/>
<path fill-rule="evenodd" clip-rule="evenodd" d="M5.56653 9.38505C5.61833 9.4063 5.64567 9.4736 5.65286 9.50459C5.65646 9.61528 5.65934 9.8526 5.64207 9.91636C5.62481 9.98011 5.59171 10.0049 5.57733 10.0093C5.36869 10.0093 4.9428 10.0067 4.90826 9.99605C4.87373 9.98543 4.85071 9.94735 4.84351 9.92964V9.50459C4.84351 9.49131 4.85431 9.4249 4.91905 9.38505H5.56653ZM5.27517 9.92964H5.55574C5.57733 9.84109 5.60754 9.62679 5.55574 9.47803H5.27517V9.92964ZM4.94064 9.47803C4.86294 9.60554 4.90107 9.82338 4.92985 9.91636H5.21042V9.47803H4.94064Z" fill="#213127"/>
<path fill-rule="evenodd" clip-rule="evenodd" d="M7.13128 8.96C7.17084 9.01756 7.21977 9.14861 7.0989 9.21237C6.34351 9.22565 4.83057 9.25222 4.82193 9.25222C4.81114 9.25222 4.71402 9.14596 4.81114 9.0397L7.13128 8.96ZM6.25718 9.05298L5.42625 9.07954L4.84351 9.09283C4.79172 9.138 4.82193 9.17364 4.84351 9.18581C5.58092 9.16367 7.06005 9.11939 7.07732 9.11939C7.0989 9.11939 7.13128 9.07954 7.0989 9.0397L6.25718 9.05298Z" fill="#213127"/>
<path fill-rule="evenodd" clip-rule="evenodd" d="M7.3471 8.86702C7.3471 8.84577 7.64926 8.84931 7.80034 8.85374L7.94063 9.09283C7.95789 9.17784 7.90466 9.23451 7.87588 9.25222H7.35789L7.30394 9.18581V8.96C7.30394 8.9175 7.33272 8.8803 7.3471 8.86702ZM7.37948 8.93343C7.36869 8.98657 7.35358 9.10611 7.37948 9.15924H7.87588C7.8471 9.08397 7.78307 8.93343 7.75717 8.93343H7.37948Z" fill="#213127"/>
<path d="M6.50538 10.2484V10.4078C6.50538 10.4211 6.50322 10.4477 6.49459 10.4477H6.46221C6.45862 10.4432 6.45142 10.4317 6.45142 10.4211V10.2484C6.45142 10.2396 6.45358 10.2219 6.46221 10.2219H6.49459L6.50538 10.2484Z" fill="#213127"/>
<path fill-rule="evenodd" clip-rule="evenodd" d="M6.71041 9.47803C6.73559 9.49131 6.78595 9.53116 6.78595 9.58429V10.0359C6.77876 10.0625 6.75574 10.1156 6.72121 10.1156H6.51617C6.49459 10.0979 6.45142 10.0572 6.45142 10.0359V9.57101C6.46221 9.54001 6.49459 9.47803 6.53775 9.47803H6.71041ZM6.54854 9.57101C6.53128 9.57101 6.51977 9.58872 6.51617 9.59757V10.0093C6.51617 10.02 6.53056 10.0315 6.53775 10.0359H6.69962C6.70826 10.0359 6.71761 10.0182 6.72121 10.0093V9.59757C6.72121 9.57632 6.70682 9.57101 6.69962 9.57101H6.54854Z" fill="#213127"/>
<path d="M7.57372 10.4078C7.58811 10.4255 7.60825 10.4663 7.57372 10.4875H7.42264C7.40466 10.4698 7.37948 10.4291 7.42264 10.4078H7.57372Z" fill="#213127"/>
<path d="M9.12767 10.9126C9.13846 10.9258 9.15357 10.9577 9.12767 10.979H8.77156C8.75357 10.9701 8.72839 10.9444 8.77156 10.9126H9.12767Z" fill="#213127"/>
<path d="M9.12767 10.7797C9.13846 10.793 9.15357 10.8249 9.12767 10.8461H8.77156C8.75717 10.8373 8.73703 10.8116 8.77156 10.7797H9.12767Z" fill="#213127"/>
<path d="M9.14926 10.6469C9.15285 10.6602 9.15357 10.6894 9.12767 10.7H8.76077C8.74638 10.6868 8.72623 10.6575 8.76077 10.6469H9.14926Z" fill="#213127"/>
<path d="M9.16005 9.27879C9.17444 9.2965 9.19458 9.33457 9.16005 9.3452L8.40465 9.29207C8.37947 9.28321 8.34422 9.26019 8.40465 9.23894L9.16005 9.27879Z" fill="#213127"/>
<path fill-rule="evenodd" clip-rule="evenodd" d="M7.87588 8.58808C8.18883 8.6235 8.82552 8.69434 8.86868 8.69434C8.91544 8.72091 9.00897 8.77935 9.00897 8.80061C9.0989 8.92015 9.27875 9.16455 9.27875 9.18581C9.29674 9.23008 9.31544 9.35051 9.24638 9.47803C9.2212 9.51787 9.16005 9.59757 9.11688 9.59757H8.80393L8.97659 9.92964C9.02336 9.90307 9.12336 9.86588 9.14926 9.92964C9.16364 9.95178 9.1881 10.0439 9.17084 10.2351L9.3435 10.4477C9.35789 10.4609 9.38666 10.522 9.38666 10.6602V11.0321C9.40825 11.0498 9.45141 11.0906 9.45141 11.1118V11.2978C9.44062 11.3199 9.40609 11.3695 9.35429 11.3907L9.00897 11.404C8.99818 11.4616 8.96149 11.5873 8.90105 11.6298H9.35429C9.38666 11.6431 9.42551 11.6776 9.32192 11.7095C8.80034 11.7449 7.16149 11.7945 4.77877 11.7095C4.7356 11.7007 4.66438 11.675 4.72481 11.6431C4.98021 11.6298 5.49531 11.6059 5.51258 11.6165C5.4838 11.5723 5.42841 11.4704 5.43704 11.4173C5.17805 11.3775 4.65575 11.2978 4.63848 11.2978C4.6097 11.2623 4.55215 11.1888 4.55215 11.1782V11.0055C4.56294 10.979 4.58668 10.9258 4.59531 10.9258H4.60611V10.7532C4.57373 10.7532 4.50035 10.7266 4.46582 10.6203L4.45503 10.5672V10.2351C4.45862 10.1776 4.49388 10.0572 4.60611 10.0359V9.11939C4.6133 9.05298 4.6579 8.91484 4.77877 8.89359L4.95143 8.86702C4.94783 8.84046 4.96654 8.77404 5.07013 8.72091L5.68524 8.70763L5.76078 8.64121H6.31114L6.46221 8.80061C6.42265 8.81389 6.38883 8.82717 6.57013 8.77404C6.66006 8.72977 6.85286 8.63324 6.90466 8.60137L7.87588 8.58808ZM6.07373 11.4173C6.06509 11.4811 6.01977 11.5856 5.99819 11.6298H6.50538C6.43632 11.598 6.37588 11.4837 6.3543 11.4306L6.07373 11.4173ZM6.94782 11.4306C6.90826 11.497 6.8248 11.6298 6.80754 11.6298H7.53056C7.50538 11.5856 7.45502 11.4837 7.45502 11.4306H6.94782ZM8.1025 11.4572C8.08811 11.5103 8.05717 11.6165 8.04854 11.6165V11.6298H8.53415C8.49098 11.5811 8.40681 11.4811 8.41545 11.4704V11.4572H8.1025ZM5.71761 11.1251C5.62821 11.1251 5.55574 11.2143 5.55574 11.3243C5.55574 11.4344 5.62821 11.5236 5.71761 11.5236C5.80701 11.5236 5.87948 11.4344 5.87948 11.3243C5.87948 11.2143 5.80701 11.1251 5.71761 11.1251ZM7.74638 11.1251C7.65698 11.1251 7.58451 11.2143 7.58451 11.3243C7.58451 11.4344 7.65698 11.5236 7.74638 11.5236C7.83578 11.5236 7.90825 11.4344 7.90825 11.3243C7.90825 11.2143 7.83578 11.1251 7.74638 11.1251ZM8.05933 11.1782C8.05573 11.2313 8.06581 11.3456 8.13487 11.3775C8.52336 11.3597 9.31113 11.319 9.35429 11.2978C9.38666 11.2712 9.43199 11.1995 9.35429 11.1251L8.05933 11.1782ZM7.24998 9.58429C7.23183 9.58426 7.19562 9.59218 7.19602 9.62414L7.21761 11.311C7.232 11.3332 7.26725 11.3642 7.29315 11.311L7.30394 9.62414L7.33631 9.58429H7.24998ZM5.93344 11.0188C5.9766 11.0507 6.02337 11.2358 6.04135 11.3243L7.13128 11.3376V11.0188H6.91545V11.1649C6.90682 11.2287 6.86149 11.2535 6.83991 11.2579H6.40826C6.38236 11.2579 6.34711 11.1959 6.33272 11.1649V11.0055H5.93344V11.0188ZM7.35789 11.3243H7.41185C7.42048 11.0162 7.6025 10.9126 7.69243 10.8993H7.78955C7.86725 10.8993 7.9802 11.0144 8.02696 11.072H8.05933C8.03343 10.9551 7.91904 10.8816 7.86509 10.8594L7.35789 10.8461V11.3243ZM7.973 8.74748C7.96221 8.72091 7.91689 8.67044 7.82192 8.68106L6.95862 8.69434C6.82552 8.74748 6.55718 8.86171 6.54854 8.89359L4.85431 8.96C4.80395 8.95557 4.69675 8.99188 4.67085 9.17252V10.9126H4.75718V11.2048C4.95503 11.2446 5.35502 11.3217 5.37229 11.311C5.39387 11.2978 5.32912 11.1782 5.50179 10.9923H5.27517V11.0985C5.26797 11.1207 5.24711 11.1649 5.22121 11.1649H4.84351C4.82193 11.1649 4.77877 11.1463 4.77877 11.072V10.5938C4.78956 10.5628 4.81977 10.5008 4.85431 10.5008H5.21042C5.2356 10.5185 5.28596 10.5619 5.28596 10.5938V10.9126H5.56653C5.6133 10.8816 5.74135 10.8408 5.87948 10.9258H6.33272V9.47803C6.33272 9.4249 6.35214 9.31863 6.42984 9.31863H6.82912C6.8579 9.32749 6.91545 9.36645 6.91545 9.45146C6.91545 9.53647 6.92264 10.4787 6.92624 10.9391H7.13128V9.59757C7.13128 9.57543 7.14423 9.52053 7.19602 9.47803H8.11329C8.18883 9.44703 8.31616 9.33989 8.2212 9.15924L7.973 8.74748ZM4.63848 11.0055C4.62409 11.0542 4.60395 11.1596 4.63848 11.1915L4.69244 11.2048V11.0055H4.63848ZM6.45142 9.41161C6.43344 9.42047 6.39747 9.44615 6.39747 9.47803V11.1251C6.39747 11.1428 6.40826 11.1782 6.45142 11.1782H6.81833C6.82552 11.1782 6.84207 11.1649 6.8507 11.1118V9.47803C6.8507 9.45589 6.84207 9.41161 6.80754 9.41161H6.45142ZM4.87589 10.5672C4.81546 10.7691 4.85071 11.0055 4.87589 11.0985H5.19963C5.25143 10.9179 5.22121 10.669 5.19963 10.5672H4.87589ZM7.35789 10.7532L7.88667 10.7665C7.91257 10.7558 8.02696 10.8949 8.08091 10.9657L8.07012 10.4078L7.95142 10.3016C7.94278 10.3122 7.90466 10.3414 7.88667 10.3547H7.75717C7.73127 10.3547 7.70322 10.3016 7.69243 10.275H7.4766C7.4507 10.275 7.42984 10.2396 7.42264 10.2219V9.71712C7.42264 9.69586 7.45142 9.66399 7.46581 9.6507H7.81113C7.8284 9.6507 7.86868 9.69498 7.88667 9.71712L8.13487 10.2484V11.0852H8.43703V10.9524L8.3507 10.9391C8.2471 10.7691 8.30753 10.6469 8.3507 10.6071L8.42624 10.5938V10.5539C8.38307 10.5141 8.17804 10.2219 8.16724 10.1953C8.15645 10.1687 7.99458 9.81009 7.973 9.74368C7.95573 9.69055 7.973 9.65956 7.98379 9.6507H8.72839C8.73703 9.64008 8.68883 9.602 8.66365 9.58429H7.36869L7.35789 10.7532ZM8.31832 10.3016C8.37228 10.368 8.48451 10.5194 8.50178 10.5938L8.5989 10.6071C8.66005 10.6646 8.75213 10.8116 8.63127 10.9391L8.51257 10.9524V11.0852L9.31112 11.0587V10.9391C9.27875 10.9347 9.214 10.9232 9.214 10.9126C9.214 10.8993 9.10609 10.6602 9.30033 10.6071V10.5274L9.08451 10.2883L8.31832 10.3016ZM8.37228 10.6868C8.35789 10.7222 8.33775 10.8063 8.37228 10.8594H8.44782V10.6868H8.37228ZM8.50178 10.8594H8.60969C8.62767 10.8329 8.6507 10.7665 8.5989 10.7133L8.57732 10.6868H8.50178V10.8594ZM9.31112 10.6735C9.30033 10.6602 9.28954 10.6735 9.25717 10.7C9.23127 10.7213 9.24638 10.8063 9.25717 10.8461H9.31112V10.6735ZM4.60611 10.1156C4.56294 10.105 4.53057 10.182 4.51978 10.2219V10.5539C4.51978 10.5964 4.57733 10.6425 4.60611 10.6602V10.1156ZM7.50897 9.71712C7.48307 9.71712 7.46941 9.75254 7.46581 9.77025V10.1422C7.46581 10.1847 7.4802 10.2041 7.48739 10.2086H7.68163C7.6989 10.2086 7.70322 10.182 7.70322 10.1687V9.98277C7.70322 9.94027 7.74638 9.92964 7.76797 9.92964H7.8543C7.88883 9.92964 7.91904 9.97391 7.92984 9.99605V10.2086L8.07012 10.3148V10.2883C8.07012 10.2484 7.92984 9.94292 7.91904 9.90307C7.91041 9.8712 7.83631 9.76582 7.80034 9.71712H7.50897ZM7.78955 9.99605C7.78091 9.99605 7.77876 10.0226 7.77876 10.0359V10.2484C7.77876 10.2591 7.78595 10.2706 7.78955 10.275H7.8543C7.86293 10.275 7.87228 10.2573 7.87588 10.2484V10.0359C7.87588 10.0253 7.86149 10.0049 7.8543 9.99605H7.78955ZM8.03775 9.71712C8.0953 9.86323 8.21904 10.1661 8.25358 10.2086C8.50537 10.213 9.01113 10.2192 9.01976 10.2086C8.95861 10.0669 8.82336 9.7729 8.77156 9.7304L8.03775 9.71712ZM9.08451 9.99605C9.06292 9.98277 9.03055 9.9562 9.03055 9.99605C9.03055 10.0279 9.06652 10.1156 9.08451 10.1554C9.0917 10.1067 9.10177 10.0067 9.08451 9.99605ZM8.01617 8.69434C8.12048 8.84931 8.32911 9.16455 8.32911 9.18581V9.31863C8.32911 9.37176 8.27876 9.45589 8.25358 9.49131L9.06292 9.51787C9.12336 9.51787 9.18163 9.42932 9.20321 9.38505C9.22048 9.35317 9.2176 9.28321 9.214 9.25222C9.214 9.18846 9.04134 8.96885 8.95501 8.86702C8.94638 8.84577 8.90105 8.81389 8.87947 8.80061C8.85357 8.77935 8.29314 8.72091 8.01617 8.69434ZM5.67445 8.78732C5.4874 8.79175 5.11114 8.80061 5.10251 8.80061C5.09387 8.80061 5.06294 8.83603 5.04855 8.85374L5.65286 8.84046C5.67013 8.82983 5.67445 8.80061 5.67445 8.78732ZM6.27876 8.73419C6.11129 8.73419 5.7754 8.73685 5.77157 8.74748C5.76438 8.76519 5.75214 8.80592 5.76078 8.82717L6.36509 8.81389C6.3507 8.78732 6.31329 8.73419 6.27876 8.73419Z" fill="#213127"/>
<path d="M6.50538 12.0947C6.50538 12.0801 6.51504 12.0682 6.52696 12.0682H7.71401C7.72593 12.0682 7.73559 12.0801 7.73559 12.0947V12.1213C7.73559 12.136 7.72593 12.1479 7.71401 12.1479H6.52696C6.51504 12.1479 6.50538 12.136 6.50538 12.1213V12.0947Z" fill="#213127"/>
<path d="M8.14566 12.3604C8.14566 12.3457 8.15532 12.3338 8.16724 12.3338H8.74998C8.7619 12.3338 8.77156 12.3457 8.77156 12.3604V12.3869C8.77156 12.4016 8.7619 12.4135 8.74998 12.4135H8.16724C8.15532 12.4135 8.14566 12.4016 8.14566 12.3869V12.3604Z" fill="#213127"/>
<path d="M9.9586 11.6431C9.9586 11.6284 9.96827 11.6165 9.98019 11.6165H10.3471C10.359 11.6165 10.3687 11.6284 10.3687 11.6431V11.6697C10.3687 11.6843 10.359 11.6962 10.3471 11.6962H9.98019C9.96827 11.6962 9.9586 11.6843 9.9586 11.6697V11.6431Z" fill="#213127"/>
<path d="M3.89388 11.3243C3.89388 11.3097 3.90354 11.2978 3.91546 11.2978H4.28237C4.29429 11.2978 4.30395 11.3097 4.30395 11.3243V11.3509C4.30395 11.3656 4.29429 11.3775 4.28237 11.3775H3.91546C3.90354 11.3775 3.89388 11.3656 3.89388 11.3509V11.3243Z" fill="#213127"/>
<path d="M5.27923 5.40011C5.28035 5.3855 5.29088 5.37478 5.30274 5.37616L5.66802 5.41864C5.67989 5.42002 5.6886 5.43298 5.68748 5.44758L5.68545 5.47403C5.68433 5.48864 5.6738 5.49936 5.66193 5.49798L5.29666 5.4555C5.28479 5.45412 5.27608 5.44116 5.2772 5.42656L5.27923 5.40011Z" fill="#213127"/>
<path d="M5.07642 3.91801C5.08182 3.90493 5.09481 3.89971 5.10543 3.90635L5.91504 4.41214C5.92566 4.41878 5.92991 4.43477 5.92451 4.44786L5.91474 4.47155C5.90935 4.48463 5.89636 4.48985 5.88573 4.48321L5.07613 3.97742C5.0655 3.97078 5.06126 3.95479 5.06665 3.9417L5.07642 3.91801Z" fill="#213127"/>
<path d="M5.94875 2.97994C5.95745 2.96992 5.97111 2.97047 5.97925 2.98118L6.45404 3.60551C6.46218 3.61622 6.46173 3.63303 6.45303 3.64306L6.43727 3.66121C6.42857 3.67124 6.41491 3.67068 6.40677 3.65997L5.93198 3.03564C5.92384 3.02493 5.92429 3.00812 5.93299 2.9981L5.94875 2.97994Z" fill="#213127"/>
<path d="M6.93436 2.30127C6.94554 2.29619 6.95795 2.30322 6.96208 2.31699L7.20278 3.11919C7.20691 3.13295 7.20119 3.14823 7.19001 3.15332L7.16976 3.16252C7.15858 3.1676 7.14617 3.16056 7.14204 3.1468L6.90134 2.3446C6.89722 2.33083 6.90293 2.31556 6.91411 2.31047L6.93436 2.30127Z" fill="#213127"/>
<path d="M8.02047 2.00016C8.03239 2.00024 8.04199 2.0122 8.04192 2.02688L8.03787 2.88203C8.0378 2.8967 8.02808 2.90852 8.01616 2.90844L7.99458 2.90828C7.98266 2.90819 7.97306 2.89623 7.97313 2.88156L7.97718 2.02641C7.97725 2.01174 7.98696 1.99991 7.99888 2L8.02047 2.00016Z" fill="#213127"/>
<path d="M9.12942 2.28527C9.14048 2.29074 9.14586 2.3062 9.14142 2.31982L8.88285 3.11355C8.87842 3.12717 8.86585 3.13378 8.85479 3.12832L8.83476 3.11844C8.82369 3.11298 8.81832 3.09751 8.82276 3.08389L9.08132 2.29016C9.08576 2.27654 9.09832 2.26993 9.10939 2.27539L9.12942 2.28527Z" fill="#213127"/>
<path d="M10.0805 2.99222C10.0893 3.00217 10.0899 3.01898 10.0818 3.02976L9.61076 3.6584C9.60268 3.66919 9.58903 3.66987 9.58027 3.65992L9.5644 3.64191C9.55564 3.63197 9.55509 3.61516 9.56317 3.60437L10.0342 2.97573C10.0423 2.96495 10.0559 2.96427 10.0647 2.97421L10.0805 2.99222Z" fill="#213127"/>
<path d="M10.9264 3.96179C10.9319 3.97481 10.9278 3.99085 10.9172 3.9976L10.1371 4.49535C10.1265 4.5021 10.1135 4.49702 10.108 4.48399L10.098 4.46041C10.0925 4.44738 10.0967 4.43135 10.1073 4.4246L10.8874 3.92684C10.898 3.92009 10.911 3.92518 10.9165 3.9382L10.9264 3.96179Z" fill="#213127"/>
<path d="M10.7969 5.42666C10.7977 5.4413 10.7888 5.45399 10.7769 5.45501L10.33 5.49336C10.3181 5.49438 10.3078 5.48334 10.3069 5.4687L10.3054 5.4422C10.3046 5.42757 10.3136 5.41487 10.3255 5.41385L10.7724 5.37551C10.7843 5.37449 10.7946 5.38553 10.7954 5.40016L10.7969 5.42666Z" fill="#213127"/>
<path fill-rule="evenodd" clip-rule="evenodd" d="M11.1898 11.2712L11.1359 11.3376L11.0819 11.2845L9.72222 11.2181C9.70783 11.2092 9.68337 11.1888 9.70063 11.1782C9.7179 11.1676 9.83732 10.9436 9.89488 10.8329C9.80135 10.9347 9.60999 11.157 9.59272 11.2313C9.56754 11.2491 9.51934 11.2313 9.52797 11.0188C9.54236 10.9878 9.57761 10.9551 9.60351 11.072C9.80495 10.8284 10.2424 10.2033 10.3805 9.6507C10.6251 9.70383 11.1639 9.78884 11.3625 9.70383C11.4582 9.922 11.6058 10.2528 11.7402 10.5425C11.8786 10.8407 12.0029 11.0952 12.0424 11.1384C12.0388 11.1517 12.0272 11.1782 12.01 11.1782L11.1898 11.2712ZM9.84092 11.1251L10.3589 9.92964V10.3414C10.3589 10.3839 10.2222 10.8816 10.1539 11.1251H9.84092ZM10.6395 11.1384C10.5359 11.0321 10.4524 10.306 10.4237 9.95621L11.0172 11.1517L10.6395 11.1384ZM10.4776 9.79681C10.5121 10.0518 10.9165 10.7886 11.1143 11.1251L11.1575 11.0188H11.2222L11.2006 11.1649L11.9129 11.0985C11.938 11.1118 11.9733 11.1277 11.9129 11.0852C11.8524 11.0427 11.4776 10.1997 11.2978 9.78353C11.2028 9.84729 10.7114 9.81895 10.4776 9.79681Z" fill="#213127"/>
<path d="M12.1934 10.9657C12.1762 10.9763 12.1503 11.0233 12.1395 11.0454L11.9447 10.793L11.7402 10.5425L11.8913 10.8594C12.0639 10.9524 12.1503 11.2313 12.1718 11.2313C12.1891 11.2313 12.215 11.072 12.2258 10.9923C12.2222 10.979 12.2107 10.9551 12.1934 10.9657Z" fill="#213127"/>
<path d="M10.8867 11.6431C10.8867 11.6284 10.8963 11.6165 10.9082 11.6165H11.9226C11.9345 11.6165 11.9442 11.6284 11.9442 11.6431V11.6697C11.9442 11.6843 11.9345 11.6962 11.9226 11.6962H10.9082C10.8963 11.6962 10.8867 11.6843 10.8867 11.6697V11.6431Z" fill="#213127"/>
<path d="M8.72839 12.015C8.72839 12.0004 8.73806 11.9885 8.74998 11.9885H10.0665C10.0784 11.9885 10.0881 12.0004 10.0881 12.015V12.0416C10.0881 12.0563 10.0784 12.0682 10.0665 12.0682H8.74998C8.73806 12.0682 8.72839 12.0563 8.72839 12.0416V12.015Z" fill="#213127"/>
<path d="M6.49526 3.94335C6.9212 3.34386 7.48698 3.01835 8.07122 3.03663C8.65546 3.0549 9.21166 3.41551 9.62053 4.04111C9.96269 4.56463 10.1788 5.23887 10.2403 5.9581H10.1318C10.0707 5.26748 9.86238 4.62304 9.53646 4.12436C9.14487 3.52521 8.61708 3.18656 8.06848 3.1694C7.52001 3.15225 6.98387 3.45744 6.57649 4.03081C6.1918 4.57225 5.95263 5.31062 5.90682 6.1038C5.86611 6.14474 5.82815 6.18696 5.79315 6.23037C5.81968 5.36035 6.07145 4.53985 6.49526 3.94335Z" fill="#213127"/>
<path fill-rule="evenodd" clip-rule="evenodd" d="M12.9909 6.51398C13.0122 6.68735 13.0881 6.93275 13.1748 7.17002C13.2615 7.40691 13.3584 7.63434 13.4213 7.7713L13.4328 7.79654L13.4097 7.79086C13.3829 7.78425 13.3416 7.77502 13.3049 7.76876C13.2865 7.76562 13.2695 7.76325 13.2562 7.76232C13.2499 7.76189 13.2446 7.76183 13.2405 7.76206C13.2411 7.76404 13.2419 7.76634 13.2428 7.76894C13.2476 7.782 13.2555 7.80069 13.2661 7.82396C13.2873 7.8704 13.3184 7.93379 13.3538 8.00393C13.4247 8.14414 13.5126 8.31074 13.572 8.42137L13.5847 8.44522L13.5617 8.44187C13.5311 8.43745 13.4837 8.43082 13.4407 8.42529C13.4067 8.42093 13.3761 8.41733 13.3585 8.41598L13.3594 8.41907C13.3636 8.43241 13.3714 8.45223 13.382 8.47733C13.4032 8.52739 13.4353 8.5969 13.4722 8.67434C13.5459 8.82916 13.6387 9.01501 13.7016 9.13893L13.714 9.16337L13.6908 9.15909C13.655 9.15246 13.5996 9.14321 13.55 9.13693C13.5251 9.13379 13.5019 9.13141 13.4834 9.13047C13.4741 9.13 13.4661 9.12989 13.4598 9.13021L13.4546 9.1306C13.4553 9.13334 13.4564 9.13677 13.4577 9.14093C13.4628 9.15611 13.4717 9.178 13.4838 9.20532C13.5079 9.25979 13.544 9.33435 13.5854 9.41693C13.6681 9.58203 13.7716 9.77849 13.8417 9.90904L13.8546 9.93296L13.5735 9.89143C13.5743 9.89506 13.5756 9.89955 13.5774 9.90492C13.583 9.92192 13.5928 9.94534 13.6059 9.9739C13.6322 10.0309 13.6713 10.1068 13.716 10.1899C13.8055 10.3562 13.917 10.5507 13.9925 10.679L14 10.6916L13.9886 10.6986C13.9761 10.7064 13.9599 10.7105 13.9416 10.7123C13.9232 10.714 13.902 10.7134 13.8788 10.711C13.8326 10.7061 13.7777 10.694 13.7211 10.6781C13.616 10.6488 13.5038 10.6065 13.4261 10.574L13.4585 10.7733L13.1428 10.6393L13.164 11.2142L13.045 11.2631V10.5601L12.9901 10.5039L12.9155 10.5613V11.3217L12.7962 11.3543L12.8183 10.6597V10.6372C12.736 10.6623 12.5734 10.732 12.4983 10.7656L12.4674 10.7795L12.4856 10.7458C12.5015 10.7165 12.5102 10.6747 12.5144 10.633C12.5176 10.6011 12.5179 10.5704 12.5172 10.5472C12.254 10.6892 12.0332 10.6912 11.9531 10.6733L11.9566 10.647C11.9566 10.647 11.9592 10.6471 11.9635 10.6443C11.9677 10.6416 11.9728 10.6371 11.9789 10.6305C11.9912 10.6173 12.006 10.5971 12.0229 10.5713C12.0565 10.5196 12.0972 10.4467 12.1399 10.3648C12.2211 10.209 12.309 10.0219 12.3684 9.88979H12.1061L12.1013 9.86463C12.1031 9.86353 12.1061 9.86087 12.1104 9.85581C12.1145 9.85089 12.1194 9.8443 12.125 9.83612C12.1361 9.81974 12.1495 9.79755 12.1646 9.77079C12.1949 9.71732 12.2316 9.64635 12.2701 9.56872C12.3427 9.42257 12.4214 9.25339 12.4754 9.13441C12.3977 9.14132 12.2849 9.15174 12.2464 9.15654V9.1183C12.2492 9.11425 12.2523 9.10953 12.2557 9.10403C12.2657 9.08788 12.2777 9.06615 12.2912 9.04003C12.3183 8.98783 12.3513 8.91879 12.3861 8.84321C12.4519 8.70006 12.5239 8.53394 12.5739 8.41541H12.3671L12.7032 7.76152L12.5423 7.73321L12.5638 7.71396C12.5739 7.70492 12.5868 7.68567 12.6019 7.65632C12.6169 7.62736 12.6334 7.58988 12.6509 7.5458C12.6861 7.45768 12.7251 7.34408 12.7643 7.22141C12.8427 6.97612 12.9214 6.69546 12.97 6.51188L12.9909 6.51398ZM12.9809 6.94572C12.9759 6.96203 12.9692 6.98263 12.9611 7.00645C12.944 7.05705 12.9209 7.12265 12.8953 7.19371C12.8472 7.32734 12.7905 7.48054 12.7494 7.5903L12.8823 7.57862L12.8958 7.57745L12.8938 7.5939C12.8892 7.63045 12.8734 7.68157 12.8515 7.73939C12.8295 7.79757 12.8009 7.86375 12.77 7.93082C12.7148 8.05047 12.6521 8.17349 12.6059 8.26009C12.6192 8.2565 12.6356 8.25267 12.653 8.24891C12.6878 8.24135 12.7268 8.23402 12.7521 8.22958L12.7672 8.22693L12.7642 8.24533C12.7558 8.29699 12.7302 8.37227 12.6977 8.45463C12.665 8.53738 12.6248 8.62856 12.5863 8.7125C12.5478 8.79646 12.511 8.87336 12.4852 8.92749C12.4766 8.94563 12.4692 8.96118 12.4634 8.97357C12.4694 8.97155 12.4759 8.96958 12.4829 8.96776C12.5056 8.96182 12.5337 8.95679 12.561 8.95344C12.5882 8.95009 12.615 8.94835 12.6353 8.94921C12.6453 8.94963 12.6543 8.95072 12.6611 8.95284C12.6644 8.95387 12.668 8.95541 12.671 8.95792C12.6741 8.96051 12.6781 8.96551 12.6781 8.97328C12.6781 8.97655 12.6767 8.98117 12.6767 8.98117C12.6761 8.98324 12.6753 8.98568 12.6743 8.98833C12.6724 8.99367 12.6696 9.00071 12.6661 9.00914C12.6591 9.02605 12.649 9.0492 12.6366 9.07705C12.6117 9.1328 12.5773 9.20776 12.539 9.29002C12.4675 9.44399 12.3825 9.62372 12.3218 9.75141L12.5918 9.68495L12.1822 10.534C12.4684 10.4524 12.622 10.3901 12.6631 10.369L12.6825 10.359L12.6457 10.5553V10.5678C12.6457 10.5678 12.6495 10.5664 12.6519 10.5654C12.6618 10.561 12.6753 10.5533 12.6915 10.543C12.7237 10.5224 12.7649 10.4927 12.8061 10.4628C12.8471 10.433 12.8882 10.4029 12.9196 10.382C12.9353 10.3716 12.9489 10.3632 12.9592 10.3582C12.9642 10.3558 12.9691 10.3538 12.9733 10.3531C12.9754 10.3528 12.9781 10.3526 12.9809 10.3534C12.9838 10.3543 12.9872 10.3565 12.9894 10.3611V10.3611L12.9926 10.3646C12.9954 10.3672 12.9993 10.3706 13.0044 10.3747C13.0146 10.3827 13.0287 10.393 13.0455 10.4045C13.079 10.4276 13.1227 10.4558 13.1658 10.4823C13.2089 10.5088 13.2512 10.5336 13.282 10.55C13.2934 10.5562 13.3031 10.5611 13.3105 10.5644C13.3098 10.5602 13.3091 10.5557 13.3084 10.5508C13.3062 10.5352 13.3041 10.5161 13.3021 10.496C13.2983 10.4559 13.295 10.4112 13.2932 10.3823L13.2919 10.3625L13.7737 10.5558C13.7696 10.5481 13.7651 10.5393 13.7603 10.5296C13.7455 10.5003 13.7268 10.4622 13.7056 10.4184C13.6632 10.3307 13.6109 10.2202 13.5603 10.1123C13.5097 10.0043 13.4608 9.89886 13.4252 9.8212C13.4074 9.78238 13.393 9.75045 13.3833 9.72863C13.3784 9.71775 13.3747 9.70928 13.3724 9.7037C13.3712 9.70099 13.3697 9.69701 13.3697 9.69701L13.3692 9.69551L13.3686 9.69244C13.3686 9.69244 13.3682 9.68956 13.3689 9.68668C13.3689 9.68668 13.3711 9.68182 13.3724 9.68023C13.3741 9.67878 13.3795 9.67711 13.3795 9.67711C13.383 9.67719 13.3856 9.67958 13.3856 9.67958V9.67958L13.3872 9.68074C13.3872 9.68074 13.3906 9.68238 13.3934 9.68349C13.3989 9.68572 13.4065 9.68844 13.4159 9.69154C13.4347 9.69772 13.4599 9.70524 13.4877 9.71315C13.5317 9.72568 13.5818 9.73911 13.6222 9.74965C13.605 9.72079 13.5846 9.68149 13.5625 9.63571C13.5314 9.57122 13.4963 9.49297 13.4609 9.41099C13.39 9.247 13.3176 9.06762 13.2726 8.95248L13.2624 8.92625L13.4937 9.00387C13.3609 8.76686 13.2343 8.4046 13.186 8.24743L13.1791 8.22532L13.3432 8.26318C13.2814 8.15861 13.2108 7.99263 13.1553 7.84998C13.1249 7.77178 13.0988 7.70021 13.0811 7.64898C13.0722 7.62338 13.0653 7.60277 13.061 7.58889C13.0589 7.58203 13.0573 7.57652 13.0564 7.57281C13.0564 7.57281 13.0554 7.56885 13.0553 7.56653L13.0555 7.56277C13.0555 7.56277 13.0565 7.55671 13.0606 7.55369C13.0653 7.55023 13.0712 7.55325 13.0712 7.55325L13.0735 7.55522V7.55522C13.0735 7.55522 13.0766 7.5569 13.0786 7.55771C13.0826 7.55934 13.0881 7.56112 13.0947 7.56306C13.1079 7.56691 13.1248 7.57102 13.142 7.57491C13.1615 7.57929 13.1816 7.58346 13.1967 7.58661C13.1954 7.58333 13.194 7.57977 13.1926 7.57595C13.1852 7.55648 13.1756 7.52989 13.1646 7.49859C13.1425 7.43595 13.1146 7.354 13.0868 7.27115C13.0591 7.18828 13.0315 7.10444 13.01 7.038C12.9981 7.00102 12.988 6.9691 12.9809 6.94572Z" fill="#213127"/>
<path fill-rule="evenodd" clip-rule="evenodd" d="M3.03005 6.51188C3.07856 6.69546 3.15727 6.97612 3.23567 7.22141C3.27488 7.34408 3.31394 7.45768 3.34906 7.5458C3.36663 7.58988 3.38312 7.62736 3.39807 7.65632C3.41321 7.68567 3.42611 7.70492 3.43622 7.71396L3.45771 7.73321L3.29684 7.76152L3.63291 8.41541H3.42606C3.47613 8.53394 3.5481 8.70006 3.61394 8.84321C3.6487 8.91879 3.68168 8.98783 3.70878 9.04003C3.72234 9.06615 3.73435 9.08788 3.7443 9.10403C3.74927 9.11211 3.75363 9.11866 3.75734 9.1236C3.75985 9.12692 3.76188 9.12921 3.76341 9.13076V9.13076L3.76438 9.15735L3.762 9.15732L3.76015 9.1573V9.1573L3.75901 9.15722V9.15722C3.72628 9.15276 3.60604 9.14165 3.52459 9.13441C3.57856 9.25339 3.65734 9.42257 3.7299 9.56872C3.76844 9.64634 3.80513 9.71732 3.83537 9.77079C3.8505 9.79755 3.86391 9.81974 3.87504 9.83612C3.8806 9.8443 3.88548 9.85089 3.88964 9.85581C3.89393 9.86087 3.89693 9.86353 3.8987 9.86463L3.89388 9.88979H3.63164C3.69104 10.0219 3.77886 10.209 3.86007 10.3648C3.90277 10.4467 3.94347 10.5196 3.97713 10.5713C3.994 10.5971 4.00883 10.6173 4.02106 10.6305C4.02717 10.6371 4.03232 10.6416 4.03646 10.6443C4.04078 10.6471 4.04344 10.647 4.04344 10.647L4.0469 10.6733C3.96684 10.6912 3.74601 10.6892 3.48284 10.5472C3.48207 10.5704 3.48244 10.6011 3.48562 10.633C3.48977 10.6747 3.4985 10.7165 3.51437 10.7458L3.53262 10.7795L3.5017 10.7656C3.42661 10.732 3.264 10.6623 3.18165 10.6372V10.6597L3.20378 11.3543L3.08453 11.3217V10.5613L3.00992 10.5039L2.95503 10.5601V11.2631L2.83597 11.2142L2.85722 10.6393L2.54148 10.7733L2.57388 10.574C2.49623 10.6065 2.38396 10.6488 2.27893 10.6781C2.22228 10.694 2.16743 10.7061 2.12115 10.711C2.09801 10.7134 2.07677 10.714 2.05838 10.7123C2.04013 10.7105 2.02393 10.7064 2.01136 10.6986L2 10.6916L2.00746 10.679C2.08295 10.5507 2.19454 10.3562 2.28399 10.1899C2.32873 10.1068 2.36782 10.0309 2.39407 9.9739C2.40723 9.94534 2.41698 9.92192 2.42261 9.90492C2.42439 9.89955 2.42566 9.89506 2.42651 9.89143L2.14543 9.93296L2.15827 9.90904C2.22837 9.77849 2.3319 9.58202 2.41464 9.41693C2.45603 9.33435 2.49213 9.25979 2.51623 9.20532C2.52832 9.178 2.53721 9.15611 2.54226 9.14093C2.54365 9.13677 2.54467 9.13334 2.54538 9.1306L2.54018 9.13021C2.53386 9.12989 2.52589 9.13 2.51661 9.13047C2.49807 9.13141 2.47485 9.13379 2.45003 9.13693C2.40043 9.14321 2.34502 9.15246 2.30915 9.15909L2.28599 9.16337L2.29841 9.13893C2.36133 9.01501 2.45409 8.82916 2.52785 8.67434C2.56474 8.5969 2.5968 8.52739 2.61799 8.47733C2.62862 8.45223 2.63636 8.43241 2.64061 8.41907L2.64149 8.41598C2.62392 8.41733 2.59328 8.42093 2.55932 8.42529C2.5163 8.43082 2.46886 8.43745 2.43831 8.44187L2.41526 8.44522L2.42805 8.42137C2.48737 8.31074 2.57527 8.14414 2.64615 8.00393C2.68161 7.93379 2.71272 7.8704 2.73387 7.82396C2.74447 7.8007 2.75244 7.782 2.75718 7.76894C2.75813 7.76634 2.75889 7.76404 2.75952 7.76206C2.75539 7.76183 2.75011 7.76189 2.74384 7.76232C2.73048 7.76325 2.71347 7.76562 2.69511 7.76876C2.65844 7.77502 2.6171 7.78425 2.59026 7.79086L2.56716 7.79654L2.57875 7.7713C2.64156 7.63434 2.73853 7.40691 2.82516 7.17002C2.91192 6.93275 2.98777 6.68735 3.00912 6.51398L3.03005 6.51188ZM3.01913 6.94572C3.01197 6.96909 3.00188 7.00102 2.98996 7.038C2.96853 7.10444 2.94092 7.18829 2.91317 7.27115C2.88543 7.354 2.8575 7.43595 2.83544 7.49859C2.82442 7.52989 2.81482 7.55648 2.80743 7.57595C2.80598 7.57976 2.80461 7.58333 2.80332 7.58661C2.81836 7.58346 2.83853 7.57929 2.85795 7.57491C2.8752 7.57102 2.89214 7.56691 2.90531 7.56306C2.91191 7.56112 2.91738 7.55934 2.92137 7.55771C2.92338 7.5569 2.92578 7.55564 2.92578 7.55564V7.55564L2.92881 7.55325C2.92881 7.55325 2.93468 7.55024 2.93937 7.55369C2.94346 7.55671 2.94449 7.56277 2.94449 7.56277L2.94468 7.56653C2.94455 7.56885 2.94361 7.57281 2.94361 7.57281C2.9427 7.57652 2.9411 7.58204 2.93897 7.58889C2.93466 7.60277 2.9278 7.62339 2.91893 7.64898C2.90116 7.70021 2.87513 7.77178 2.84472 7.84998C2.78924 7.99262 2.71862 8.15861 2.65677 8.26318L2.82086 8.22532L2.81405 8.24743C2.76573 8.4046 2.63914 8.76686 2.50635 9.00387L2.7376 8.92625L2.72736 8.95248C2.68235 9.06762 2.60998 9.247 2.53912 9.41099C2.5037 9.49297 2.46861 9.57122 2.43747 9.63571C2.41536 9.68149 2.395 9.72079 2.37782 9.74965C2.41819 9.73911 2.46832 9.72568 2.51231 9.71315C2.54006 9.70524 2.56529 9.69772 2.58406 9.69154C2.59346 9.68844 2.60113 9.68572 2.60661 9.68349C2.60936 9.68238 2.61277 9.68074 2.61277 9.68074L2.61393 9.68007V9.68007C2.61393 9.68007 2.61706 9.67719 2.6205 9.67711C2.6205 9.67711 2.62594 9.67878 2.62765 9.68023C2.62895 9.68182 2.63108 9.68668 2.63108 9.68668C2.63177 9.68955 2.6314 9.69244 2.6314 9.69244L2.63077 9.69551L2.63028 9.69701C2.63028 9.69701 2.62876 9.701 2.62763 9.7037C2.62529 9.70928 2.62159 9.71776 2.61675 9.72863C2.60704 9.75045 2.59256 9.78238 2.57476 9.8212C2.53917 9.89886 2.49026 10.0043 2.43966 10.1123C2.38907 10.2202 2.33676 10.3307 2.2944 10.4184C2.27323 10.4622 2.25451 10.5003 2.23973 10.5296C2.23486 10.5393 2.23037 10.5481 2.22634 10.5558L2.70805 10.3625L2.70681 10.3823C2.70501 10.4112 2.70174 10.4559 2.69785 10.496C2.69591 10.5161 2.69381 10.5352 2.69161 10.5508C2.69092 10.5557 2.69019 10.5602 2.68946 10.5644C2.69692 10.5611 2.7066 10.5562 2.71804 10.55C2.74882 10.5336 2.79112 10.5088 2.8342 10.4823C2.87727 10.4558 2.92096 10.4276 2.95448 10.4045C2.97127 10.393 2.98539 10.3827 2.99556 10.3747C3.00067 10.3706 3.00462 10.3672 3.00737 10.3646L3.01023 10.3615V10.3615C3.01241 10.357 3.01622 10.3543 3.01906 10.3534C3.02185 10.3526 3.02458 10.3528 3.02665 10.3531C3.03086 10.3538 3.03577 10.3558 3.04079 10.3582C3.05107 10.3632 3.06475 10.3716 3.0804 10.382C3.11182 10.4029 3.15287 10.433 3.1939 10.4628C3.23509 10.4927 3.27631 10.5224 3.30853 10.543C3.32469 10.5533 3.33821 10.561 3.34814 10.5654C3.35051 10.5664 3.35431 10.5678 3.35431 10.5678V10.5553L3.31749 10.359L3.33688 10.369C3.37802 10.3901 3.53158 10.4524 3.81777 10.534L3.40821 9.68495L3.67822 9.75141C3.61749 9.62373 3.53251 9.44399 3.46096 9.29002C3.42274 9.20776 3.3883 9.1328 3.36342 9.07705C3.35098 9.0492 3.34087 9.02604 3.33387 9.00914C3.33038 9.00071 3.3276 8.99367 3.32567 8.98833C3.32471 8.98568 3.32389 8.98324 3.32329 8.98117C3.32329 8.98117 3.32194 8.97655 3.32194 8.97328C3.32194 8.96551 3.32591 8.96051 3.329 8.95792C3.33202 8.95541 3.33564 8.95387 3.33895 8.95284C3.34573 8.95072 3.35475 8.94963 3.36474 8.94921C3.38497 8.94835 3.41181 8.95009 3.43902 8.95344C3.46628 8.95679 3.49436 8.96182 3.51709 8.96776C3.52408 8.96958 3.53065 8.97155 3.53658 8.97357C3.5308 8.96118 3.52345 8.94563 3.51481 8.92749C3.48903 8.87336 3.45222 8.79646 3.41373 8.7125C3.37524 8.62856 3.33498 8.53738 3.30229 8.45463C3.26976 8.37227 3.24421 8.29699 3.23582 8.24533L3.23283 8.22693L3.24794 8.22958C3.27319 8.23402 3.31216 8.24135 3.34702 8.24891C3.36438 8.25267 3.38083 8.2565 3.39408 8.26009C3.34791 8.17349 3.28516 8.05047 3.23 7.93082C3.19908 7.86375 3.17047 7.79757 3.14848 7.73939C3.12661 7.68157 3.11081 7.63045 3.10624 7.5939L3.10419 7.57745L3.11768 7.57862L3.25057 7.5903C3.2095 7.48054 3.15278 7.32734 3.1047 7.19371C3.07913 7.12265 3.05597 7.05705 3.03888 7.00645C3.03083 6.98263 3.02414 6.96203 3.01913 6.94572Z" fill="#213127"/>
</svg>
