<svg width="375" height="92" viewBox="0 0 375 92" fill="none" xmlns="http://www.w3.org/2000/svg">
<path d="M160.136 16H166.776C169.043 16 170.696 16.5333 171.736 17.6C172.776 18.64 173.296 20.2533 173.296 22.44V23.56C173.296 25 173.056 26.1733 172.576 27.08C172.123 27.9866 171.416 28.64 170.456 29.04V29.12C172.643 29.8666 173.736 31.8133 173.736 34.96V37.36C173.736 39.52 173.163 41.1733 172.016 42.32C170.896 43.44 169.243 44 167.056 44H160.136V16ZM166.256 27.4C167.136 27.4 167.789 27.1733 168.216 26.72C168.669 26.2666 168.896 25.5066 168.896 24.44V22.88C168.896 21.8666 168.709 21.1333 168.336 20.68C167.989 20.2266 167.429 20 166.656 20H164.536V27.4H166.256ZM167.056 40C167.829 40 168.403 39.8 168.776 39.4C169.149 38.9733 169.336 38.2533 169.336 37.24V34.8C169.336 33.52 169.109 32.64 168.656 32.16C168.229 31.6533 167.509 31.4 166.496 31.4H164.536V40H167.056Z" fill="white"/>
<path d="M182.708 44.4C180.575 44.4 178.948 43.8 177.828 42.6C176.708 41.3733 176.148 39.6266 176.148 37.36V16H180.548V37.68C180.548 38.64 180.735 39.3333 181.108 39.76C181.508 40.1866 182.068 40.4 182.788 40.4C183.508 40.4 184.055 40.1866 184.428 39.76C184.828 39.3333 185.028 38.64 185.028 37.68V16H189.268V37.36C189.268 39.6266 188.708 41.3733 187.588 42.6C186.468 43.8 184.841 44.4 182.708 44.4Z" fill="white"/>
<path d="M192.402 16H198.922C201.188 16 202.842 16.5333 203.882 17.6C204.922 18.64 205.442 20.2533 205.442 22.44V24.16C205.442 27.0666 204.482 28.9066 202.562 29.68V29.76C203.628 30.08 204.375 30.7333 204.802 31.72C205.255 32.7066 205.482 34.0266 205.482 35.68V40.6C205.482 41.4 205.508 42.0533 205.562 42.56C205.615 43.04 205.748 43.52 205.962 44H201.482C201.322 43.5466 201.215 43.12 201.162 42.72C201.108 42.32 201.082 41.6 201.082 40.56V35.44C201.082 34.16 200.868 33.2666 200.442 32.76C200.042 32.2533 199.335 32 198.322 32H196.802V44H192.402V16ZM198.402 28C199.282 28 199.935 27.7733 200.362 27.32C200.815 26.8666 201.042 26.1066 201.042 25.04V22.88C201.042 21.8666 200.855 21.1333 200.482 20.68C200.135 20.2266 199.575 20 198.802 20H196.802V28H198.402Z" fill="white"/>
<path d="M214.255 44.4C212.121 44.4 210.508 43.8 209.415 42.6C208.321 41.3733 207.775 39.6266 207.775 37.36V35.76H211.935V37.68C211.935 39.4933 212.695 40.4 214.215 40.4C214.961 40.4 215.521 40.1866 215.895 39.76C216.295 39.3066 216.495 38.5866 216.495 37.6C216.495 36.4266 216.228 35.4 215.695 34.52C215.161 33.6133 214.175 32.5333 212.735 31.28C210.921 29.68 209.655 28.24 208.935 26.96C208.215 25.6533 207.855 24.1866 207.855 22.56C207.855 20.3466 208.415 18.64 209.535 17.44C210.655 16.2133 212.281 15.6 214.415 15.6C216.521 15.6 218.108 16.2133 219.175 17.44C220.268 18.64 220.815 20.3733 220.815 22.64V23.8H216.655V22.36C216.655 21.4 216.468 20.7066 216.095 20.28C215.721 19.8266 215.175 19.6 214.455 19.6C212.988 19.6 212.255 20.4933 212.255 22.28C212.255 23.2933 212.521 24.24 213.055 25.12C213.615 26 214.615 27.0666 216.055 28.32C217.895 29.92 219.161 31.3733 219.855 32.68C220.548 33.9866 220.895 35.52 220.895 37.28C220.895 39.5733 220.321 41.3333 219.175 42.56C218.055 43.7866 216.415 44.4 214.255 44.4Z" fill="white"/>
<path d="M226.7 16H232.66L237.22 44H232.82L232.02 38.44V38.52H227.02L226.22 44H222.14L226.7 16ZM231.5 34.72L229.54 20.88H229.46L227.54 34.72H231.5Z" fill="white"/>
<path d="M245.761 16H250.161V27.8L255.761 16H260.161L254.921 26.28L260.241 44H255.641L251.921 31.52L250.161 35.08V44H245.761V16Z" fill="white"/>
<path d="M265.724 16H271.684L276.244 44H271.844L271.044 38.44V38.52H266.044L265.244 44H261.164L265.724 16ZM270.524 34.72L268.564 20.88H268.484L266.564 34.72H270.524Z" fill="white"/>
<path d="M278.378 16H284.898C287.165 16 288.818 16.5333 289.858 17.6C290.898 18.64 291.418 20.2533 291.418 22.44V24.16C291.418 27.0666 290.458 28.9066 288.538 29.68V29.76C289.605 30.08 290.352 30.7333 290.778 31.72C291.232 32.7066 291.458 34.0266 291.458 35.68V40.6C291.458 41.4 291.485 42.0533 291.538 42.56C291.592 43.04 291.725 43.52 291.938 44H287.458C287.298 43.5466 287.192 43.12 287.138 42.72C287.085 42.32 287.058 41.6 287.058 40.56V35.44C287.058 34.16 286.845 33.2666 286.418 32.76C286.018 32.2533 285.312 32 284.298 32H282.778V44H278.378V16ZM284.378 28C285.258 28 285.912 27.7733 286.338 27.32C286.792 26.8666 287.018 26.1066 287.018 25.04V22.88C287.018 21.8666 286.832 21.1333 286.458 20.68C286.112 20.2266 285.552 20 284.778 20H282.778V28H284.378Z" fill="white"/>
<path d="M297.911 16H303.871L308.431 44H304.031L303.231 38.44V38.52H298.231L297.431 44H293.351L297.911 16ZM302.711 34.72L300.751 20.88H300.671L298.751 34.72H302.711Z" fill="white"/>
<path d="M308.273 16H312.713L315.593 37.72H315.673L318.553 16H322.593L318.353 44H312.513L308.273 16Z" fill="white"/>
<path d="M326.974 16H332.934L337.494 44H333.094L332.294 38.44V38.52H327.294L326.494 44H322.414L326.974 16ZM331.774 34.72L329.814 20.88H329.734L327.814 34.72H331.774Z" fill="white"/>
<path d="M339.628 16H345.148L349.428 32.76H349.508V16H353.428V44H348.908L343.628 23.56H343.548V44H339.628V16Z" fill="white"/>
<path d="M356.699 16H361.099V40H368.339V44H356.699V16Z" fill="white"/>
<path d="M370.449 16H374.849V44H370.449V16Z" fill="white"/>
<path d="M159.706 52H166.346C168.613 52 170.266 52.5333 171.306 53.6C172.346 54.64 172.866 56.2533 172.866 58.44V59.56C172.866 61 172.626 62.1733 172.146 63.08C171.693 63.9866 170.986 64.64 170.026 65.04V65.12C172.213 65.8666 173.306 67.8133 173.306 70.96V73.36C173.306 75.52 172.733 77.1733 171.586 78.32C170.466 79.44 168.813 80 166.626 80H159.706V52ZM165.826 63.4C166.706 63.4 167.36 63.1733 167.786 62.72C168.24 62.2666 168.466 61.5066 168.466 60.44V58.88C168.466 57.8666 168.28 57.1333 167.906 56.68C167.56 56.2266 167 56 166.226 56H164.106V63.4H165.826ZM166.626 76C167.4 76 167.973 75.8 168.346 75.4C168.72 74.9733 168.906 74.2533 168.906 73.24V70.8C168.906 69.52 168.68 68.64 168.226 68.16C167.8 67.6533 167.08 67.4 166.066 67.4H164.106V76H166.626Z" fill="#D98324"/>
<path d="M179.278 52H185.238L189.798 80H185.398L184.598 74.44V74.52H179.598L178.798 80H174.718L179.278 52ZM184.078 70.72L182.118 56.88H182.038L180.118 70.72H184.078Z" fill="#D98324"/>
<path d="M191.933 52H196.333V63.4H201.053V52H205.453V80H201.053V67.4H196.333V80H191.933V52Z" fill="#D98324"/>
<path d="M217.25 61.44V58.2C217.25 56.4666 216.517 55.6 215.05 55.6C213.583 55.6 212.85 56.4666 212.85 58.2V73.84C212.85 75.5466 213.583 76.4 215.05 76.4C216.517 76.4 217.25 75.5466 217.25 73.84V69.56H221.41V73.52C221.41 75.52 220.943 77.12 220.01 78.32C219.077 79.4933 217.73 80.1733 215.97 80.36V81.56C216.877 81.56 217.557 81.7066 218.01 82C218.49 82.2933 218.73 82.7733 218.73 83.44C218.73 84.4266 218.397 85.08 217.73 85.4C217.063 85.72 216.037 85.88 214.65 85.88C213.423 85.88 212.477 85.7066 211.81 85.36C211.143 85.0133 210.81 84.4133 210.81 83.56V83.16H213.77V83.48C213.77 83.7467 213.85 83.9466 214.01 84.08C214.197 84.2133 214.41 84.28 214.65 84.28C215.023 84.28 215.29 84.2 215.45 84.04C215.61 83.9066 215.69 83.6666 215.69 83.32C215.69 82.9466 215.57 82.68 215.33 82.52C215.09 82.36 214.717 82.28 214.21 82.28H214.01V80.36C212.197 80.1733 210.81 79.4933 209.85 78.32C208.917 77.1466 208.45 75.5466 208.45 73.52V58.48C208.45 56.2933 208.997 54.6 210.09 53.4C211.21 52.2 212.823 51.6 214.93 51.6C217.037 51.6 218.637 52.2 219.73 53.4C220.85 54.6 221.41 56.2933 221.41 58.48V61.44H217.25Z" fill="#D98324"/>
<path d="M224.042 52H236.042V56H228.442V63.4H234.482V67.4H228.442V76H236.042V80H224.042V52Z" fill="#D98324"/>
<path d="M71.0616 40.8922L77.4407 38.0695C78.5856 37.9609 80.9246 37.7655 81.1209 37.8523M86.8066 36.0813L95.2712 31.8411C95.8027 31.6924 96.8659 31.4171 96.8659 31.5064M49.4121 34.1343L47.5752 33.46C46.9874 33.0105 45.9424 33.3476 45.4934 33.5724L37.166 37.3933M65.5945 40.4549L55.6181 36.2999H54.8792M4.14514 75.4439L42.397 86.6287C48.0186 88.179 60.7285 91.3019 66.5946 91.3905C69.2832 91.5382 78.5957 90.7925 94.3363 86.6287C114.012 81.4238 128.677 75.3331 131.855 75.5546" stroke="white"/>
<path d="M59.2 52.043L56.9943 48.3087L59.6901 48.5284L55.6464 42.8172L58.2197 43.1467C56.9943 41.5725 54.5926 38.38 54.7886 38.2043H56.6267C54.9293 35.0907 51.683 28.8655 51.8209 28.0546C50.4069 31.4547 47.538 38.0511 46.9747 38.2025L48.6618 38.0945L45.4758 42.927H46.9463C48.1308 40.9135 50.4999 36.8644 50.4999 36.7765L48.9069 36.8863L51.7252 30.9555C52.6647 32.9324 54.5681 36.9083 54.6661 36.9962L52.9506 36.7765C53.89 38.424 55.7934 41.7409 55.8915 41.8287L53.9309 41.7189C55.1154 43.586 57.509 47.3422 57.607 47.4301L55.1563 47.3203C56.2182 48.9677 58.3912 52.3066 58.5873 52.4823L59.2 52.043Z" fill="white"/>
<path d="M41.0193 50.7074L38.6779 46.7731L41.5396 47.0045L37.247 40.9873L39.9787 41.3345C38.6779 39.6759 36.1284 36.3125 36.3365 36.1273H38.2876C36.4858 32.8469 33.0397 26.2882 33.1862 25.4339C31.6851 29.0161 28.6397 35.9659 28.0416 36.1254L29.8326 36.0116L26.4506 41.1031H28.0115C29.2689 38.9816 31.7838 34.7156 31.7838 34.623L30.0928 34.7388L33.0845 28.4902C34.0818 30.573 36.1023 34.7619 36.2064 34.8545L34.3853 34.623C35.3826 36.3588 37.4031 39.8533 37.5072 39.9459L35.4259 39.8302C36.6834 41.7973 39.2242 45.7548 39.3283 45.8474L36.7267 45.7316C37.8541 47.4674 40.1608 50.9851 40.3689 51.1702L41.0193 50.7074Z" fill="white"/>
<path d="M63.3453 53.574L65.1752 50.8294L63.1014 50.9392L66.1511 45.9989H64.4433L67.3711 41.6076L65.5412 41.7174L68.103 36.6674L70.5429 41.7174L68.957 41.6076C69.8481 43.1021 71.651 46.0852 71.7615 46.1086L69.8109 45.8891L73.1047 50.9392L71.0308 50.8294L72.3727 53.1348L73.5926 53.6837L72.6167 51.8174L75.0565 52.037C73.8773 50.4634 71.5676 47.2505 71.7628 46.987H73.7146C72.6574 45.7062 70.5672 43.1007 70.6648 42.925H72.2507C71.1121 40.9123 68.6886 36.2941 68.103 33.9228C67.0051 36.704 64.6385 42.3102 63.9553 42.4859H65.5412L62.3694 46.987H64.4433L60.7835 52.037L63.3453 51.8174L62.6134 53.3544L63.3453 53.574Z" fill="white"/>
<path d="M89.3295 46.4381L88.3536 44.6815L90.3055 45.0109L87.1337 39.8511H88.7196C87.2691 37.1065 84.5736 31.7783 84.4226 30.6197C83.8817 32.051 79.909 39.8511 79.6922 39.8511H81.5221L77.8623 44.6815H80.3022L76.5204 50.1707H78.9603L76.5204 54.0131H77.8623L80.7901 49.0729C80.0582 49.146 78.5699 49.2485 78.4723 49.0729C79.6515 47.5725 81.9857 44.3741 81.8881 43.5837L80.0582 43.6935L83.23 38.863L81.5221 38.9728L84.2059 32.9348L87.0117 38.863L85.4258 38.7533L88.4756 43.8033L86.5237 43.4739L88.7196 47.3163L89.3295 46.4381Z" fill="white"/>
<path d="M100.72 64.8077L104.041 59.518L101.581 59.7384C102.729 57.865 105.025 54.0961 105.025 54.0079L103.057 54.1181C104 52.5386 105.911 49.2472 106.01 48.7183L104.533 48.8285L106.994 43.2082L109.577 48.7183L107.732 48.6081C108.719 50.3345 110.731 53.8316 110.874 54.0079C110.278 53.9712 109.06 53.8757 108.962 53.7875C110.069 55.6609 112.332 59.4739 112.529 59.7384L110.315 59.518C111.135 61.0241 113.046 64.3228 114.128 65.4689H111.791L113.636 68.6647L114.62 68.4443L113.39 66.1301L115.235 65.6893C114.128 64.1097 111.939 60.9065 112.037 60.7302L114.497 60.8404L110.561 54.9997L112.898 55.1099C111.709 53.3834 109.355 49.9084 109.454 49.8203L111.545 49.9305C110.069 47.5795 107.067 42.4368 106.871 40.6735C105.681 43.7225 103.18 49.8423 102.688 49.9305L104.533 49.7101C103.508 51.4733 101.384 54.9997 101.089 54.9997H103.426C102.237 56.8364 99.7853 60.5319 99.4901 60.62L102.196 60.5098L99.8591 64.4771L100.72 64.8077Z" fill="white"/>
<path d="M84.1161 64.8363L84.9818 65.1658L88.3212 59.8935L85.8476 60.1132C87.002 58.2459 89.3107 54.4894 89.3107 54.4015L87.3318 54.5114C88.28 52.937 90.2012 49.6564 90.3001 49.1292L88.8159 49.2391L91.2895 43.6372L93.8868 49.1292L92.0316 49.0194C93.0249 50.7402 95.0473 54.2258 95.1912 54.4015C94.5915 54.3649 93.3674 54.2697 93.2684 54.1818C94.3815 56.0491 96.6573 59.8496 96.8552 60.1132L94.6289 59.8935C95.2013 60.9355 96.302 62.8385 97.2858 64.2871L98.2018 64.0674C97.2354 62.6532 96.295 61.218 96.3604 61.1018L98.834 61.2116L94.8763 55.3901L97.2262 55.4999C96.0306 53.7791 93.6642 50.3155 93.7631 50.2276L95.8657 50.3375C94.3816 47.9942 91.3637 42.8683 91.1659 41.1109C89.9703 44.1498 87.4555 50.2496 86.9607 50.3375L88.8159 50.1178C87.7853 51.8752 85.6497 55.3901 85.3529 55.3901H87.7028C86.5072 57.2207 84.0419 60.904 83.745 60.9919L86.466 60.8821L84.1161 64.8363Z" fill="white"/>
<path d="M52.2576 54.2318L51.6516 52.9197L53.3484 53.029L50.682 49.2021C51.1668 49.1657 52.1606 49.1146 52.2576 49.2021C52.3788 49.3114 49.1065 44.0631 48.5005 41.1109C47.4905 43.6622 45.3009 48.8085 44.6222 48.9834H46.0766C45.3494 50.2955 43.7738 52.9197 43.289 52.9197H45.3494L44.7434 53.7944L45.8342 53.9037L46.9249 51.9356H45.3494C46.1574 50.7329 47.7733 48.2618 47.7733 47.9994H46.5613L48.5005 43.7351L50.4396 47.9994H49.1065C49.7933 49.2021 51.2153 51.6732 51.4092 51.9356H49.9549L51.288 54.4505L52.2576 54.2318Z" fill="white"/>
<path d="M23.6104 47.2304L23.0044 45.8968L24.7011 46.0079L22.0348 42.1183C22.5196 42.0812 23.5134 42.0294 23.6104 42.1183C23.7316 42.2294 20.4593 36.895 19.8533 33.8944C18.8433 36.4875 16.6537 41.7182 15.975 41.896H17.4293C16.7022 43.2296 15.1266 45.8968 14.6418 45.8968H16.7022L16.0962 46.7859L17.1869 46.897L18.2777 44.8966H16.7022C17.5101 43.6741 19.1261 41.1625 19.1261 40.8958H17.9141L19.8533 36.5616L21.7924 40.8958H20.4593C21.146 42.1183 22.5681 44.6299 22.762 44.8966H21.3076L22.6408 47.4527L23.6104 47.2304Z" fill="white"/>
<path d="M21.9403 67.79L24.0159 64.7164L21.6961 64.9359L25.4811 58.8984H23.1613L26.7021 53.1902L24.7485 53.4098L27.8009 47.9211H26.3358L28.6556 42.7618L31.0976 47.9211H29.5103L32.4406 53.4098L30.7313 53.1902L31.7081 55.3857L32.4406 55.0564L32.1964 54.1782L34.7605 54.5075C33.5395 52.8609 31.0976 49.4799 31.0976 49.1286L33.0511 49.3482C31.5191 46.5934 28.6221 41.0366 28.8615 40.1004C27.5461 42.944 24.942 48.47 24.7485 48.47L24.138 49.2384L26.2137 49.0189L22.9171 54.3977L24.9927 54.288C23.8531 56.1175 21.5007 59.7985 21.2077 59.8864H23.6497L20.1088 65.8141L21.9403 65.9239L20.9635 67.79H21.9403Z" fill="white"/>
<path d="M120.078 48.5066L119.366 46.9579L121.358 47.087L118.228 42.57C118.797 42.527 119.964 42.4667 120.078 42.57C120.22 42.699 116.379 36.5043 115.667 33.0197C114.482 36.0311 111.911 42.1054 111.114 42.3119H112.822C111.968 43.8606 110.119 46.9579 109.549 46.9579H111.968L111.257 47.9904L112.537 48.1195L113.818 45.7964H111.968C112.917 44.3768 114.814 41.4601 114.814 41.1503H113.391L115.667 36.1171L117.944 41.1503H116.379C117.185 42.57 118.854 45.4867 119.082 45.7964H117.375L118.94 48.7647L120.078 48.5066Z" fill="white"/>
<path d="M104.438 44.7245L103.542 42.7887L106.051 42.95L102.109 37.3037C102.826 37.2499 104.295 37.1746 104.438 37.3037C104.617 37.465 99.7799 29.7216 98.8841 25.3659C97.3911 29.13 94.1543 36.7229 93.151 36.9811H95.3009C94.2259 38.9169 91.8968 42.7887 91.1802 42.7887H94.2259L93.3301 44.0792L94.9426 44.2406L96.555 41.3368H94.2259C95.4203 39.5622 97.8091 35.9163 97.8091 35.5292H96.0175L98.8841 29.2376L101.751 35.5292H99.7799C100.795 37.3037 102.897 40.9496 103.184 41.3368H101.034L103.005 45.0472L104.438 44.7245Z" fill="white"/>
<path d="M45.5309 71.1567C45.7132 71.2661 45.9683 71.5722 45.5309 71.9221H41.704C41.5582 71.7763 41.3542 71.4191 41.704 71.1567H45.5309Z" fill="white"/>
<path d="M45.5309 70.0633C45.7132 70.1726 45.9683 70.4569 45.5309 70.7193H41.8134C41.6311 70.61 41.3761 70.3257 41.8134 70.0633H45.5309Z" fill="white"/>
<path d="M45.5309 68.9699C45.6767 69.0792 45.8808 69.3417 45.5309 69.5166H41.9227C41.704 69.4437 41.398 69.2323 41.9227 68.9699H45.5309Z" fill="white"/>
<path fill-rule="evenodd" clip-rule="evenodd" d="M39.0799 61.3161C39.6046 61.491 39.8817 62.045 39.9546 62.3001C39.991 63.2113 40.0202 65.1648 39.8452 65.6897C39.6703 66.2145 39.335 66.4186 39.1892 66.4551C37.0753 66.4551 32.76 66.4332 32.4101 66.3457C32.0602 66.2582 31.8269 65.9448 31.754 65.799V62.3001C31.7541 62.1907 31.8635 61.644 32.5194 61.3161H39.0799ZM36.1277 65.799H38.9705C39.1892 65.0701 39.4953 63.306 38.9705 62.0814H36.1277V65.799ZM32.7381 62.0814C31.9509 63.1311 32.3372 64.9243 32.6288 65.6897H35.4716V62.0814H32.7381Z" fill="white"/>
<path fill-rule="evenodd" clip-rule="evenodd" d="M54.9342 57.8172C55.3351 58.291 55.8308 59.3698 54.6062 59.8946C46.9524 60.004 31.6228 60.2227 31.5354 60.2227C31.4257 60.2223 30.4422 59.3478 31.426 58.4732L54.9342 57.8172ZM46.0776 58.5825L37.6584 58.8012L31.754 58.9106C31.2293 59.2824 31.5354 59.5757 31.754 59.676C39.2247 59.4937 54.209 59.1293 54.3875 59.1292C54.6062 59.1292 54.9342 58.8012 54.6062 58.4732L46.0776 58.5825Z" fill="white"/>
<path fill-rule="evenodd" clip-rule="evenodd" d="M57.121 57.0518C57.1215 56.8769 60.1827 56.906 61.7133 56.9424L63.1348 58.9106C63.3097 59.6103 62.7703 60.0769 62.4787 60.2227H57.2304L56.6837 59.676V57.8172C56.6837 57.4673 56.9753 57.1611 57.121 57.0518ZM57.4491 57.5985C57.3397 58.0358 57.1867 59.0199 57.4491 59.4573H62.4787C62.1871 58.8377 61.5384 57.5985 61.276 57.5985H57.4491Z" fill="white"/>
<path d="M48.5925 68.4232V69.7353C48.5925 69.8446 48.5706 70.0633 48.4831 70.0633H48.1551C48.1187 70.0268 48.0458 69.9321 48.0458 69.8446V68.4232C48.0458 68.3503 48.0677 68.2046 48.1551 68.2045H48.4831L48.5925 68.4232Z" fill="white"/>
<path fill-rule="evenodd" clip-rule="evenodd" d="M50.67 62.0814C50.9251 62.1908 51.4353 62.5188 51.4353 62.9562V66.6737C51.3624 66.8924 51.1292 67.3298 50.7793 67.3298H48.7018C48.4831 67.184 48.0458 66.8487 48.0458 66.6737V62.8468C48.1551 62.5917 48.4832 62.0815 48.9205 62.0814H50.67ZM49.0298 62.8468C48.8549 62.8469 48.7383 62.9926 48.7018 63.0655V66.4551C48.7018 66.5425 48.8476 66.6373 48.9205 66.6737H50.5606C50.6481 66.6737 50.7428 66.528 50.7793 66.4551V63.0655C50.7793 62.8906 50.6335 62.8468 50.5606 62.8468H49.0298Z" fill="white"/>
<path d="M59.4172 69.7353C59.563 69.8811 59.7671 70.2164 59.4172 70.3913H57.8864C57.7042 70.2455 57.4492 69.9102 57.8864 69.7353H59.4172Z" fill="white"/>
<path d="M75.1622 73.8902C75.2716 73.9996 75.4247 74.262 75.1622 74.4369H71.554C71.3718 74.364 71.1167 74.1526 71.554 73.8902H75.1622Z" fill="white"/>
<path d="M75.1622 72.7968C75.2716 72.9062 75.4247 73.1686 75.1622 73.3435H71.554C71.4082 73.2706 71.2042 73.0592 71.554 72.7968H75.1622Z" fill="white"/>
<path d="M75.3809 71.7034C75.4174 71.8128 75.4247 72.0533 75.1622 72.1408H71.4447C71.2989 72.0314 71.0949 71.7909 71.4447 71.7034H75.3809Z" fill="white"/>
<path d="M75.4903 60.4413C75.636 60.5871 75.8401 60.9006 75.4903 60.988L67.8364 60.5507C67.5813 60.4778 67.2242 60.2882 67.8364 60.1133L75.4903 60.4413Z" fill="white"/>
<path fill-rule="evenodd" clip-rule="evenodd" d="M62.4787 54.7556C65.6495 55.0472 72.1001 55.6303 72.5381 55.6303C73.0118 55.849 73.9593 56.3301 73.9595 56.5051C74.8706 57.4891 76.6927 59.5007 76.693 59.676C76.8752 60.0404 77.0648 61.0318 76.365 62.0814C76.1099 62.4095 75.4903 63.0655 75.0529 63.0655H71.882L73.6315 65.799C74.1053 65.5804 75.1185 65.2743 75.3809 65.799C75.5267 65.9813 75.7745 66.7394 75.5996 68.3139L77.349 70.0633C77.4948 70.1726 77.7864 70.6756 77.7864 71.8128V74.8743C78.0051 75.0201 78.4424 75.3554 78.4425 75.5303V77.0611C78.3331 77.2433 77.9832 77.6515 77.4584 77.8265L73.9595 77.9358C73.8501 78.4096 73.4784 79.4447 72.8661 79.7946H77.4584C77.7864 79.904 78.18 80.1882 77.1304 80.4507C71.8455 80.7422 55.2403 81.1504 31.098 80.4507C30.6606 80.3778 29.9391 80.1664 30.5513 79.904C33.1387 79.7946 38.3569 79.5979 38.5331 79.6853C38.2416 79.3208 37.6803 78.4825 37.7678 78.0452C35.1436 77.7171 29.8515 77.0611 29.6766 77.0611C29.385 76.7695 28.8018 76.1645 28.8018 76.077V74.6556C28.9112 74.437 29.1517 73.9998 29.2392 73.9996H29.3485V72.5781C29.0205 72.5781 28.277 72.3594 27.9271 71.4847L27.8178 71.0474V68.3139C27.8542 67.84 28.2115 66.8487 29.3485 66.6737V59.1292C29.4214 58.5825 29.8734 57.4454 31.098 57.2705L32.8474 57.0518C32.811 56.8331 33.0006 56.2864 34.0502 55.849L40.2826 55.7397L41.048 55.193H46.6244L48.1551 56.5051C47.7542 56.6144 47.4117 56.7237 49.2485 56.2864C50.1597 55.9219 52.1132 55.1274 52.6381 54.865L62.4787 54.7556ZM44.2189 78.0452C44.1314 78.57 43.6722 79.4301 43.4535 79.7946H48.5925C47.8927 79.5322 47.2804 78.5919 47.0617 78.1545L44.2189 78.0452ZM53.0754 78.1545C52.6745 78.7012 51.829 79.7946 51.654 79.7946H58.9798C58.7247 79.4301 58.2144 78.5918 58.2144 78.1545H53.0754ZM64.7749 78.3732C64.6291 78.8105 64.3157 79.6853 64.2282 79.6853V79.7946H69.1485C68.7111 79.3937 67.8584 78.5701 67.9458 78.4825V78.3732H64.7749ZM61.5348 75.8643C60.5215 75.8643 59.7 76.6057 59.6999 77.5202C59.6999 78.4348 60.5215 79.1762 61.5348 79.1762C62.5481 79.1761 63.3695 78.4348 63.3695 77.5202C63.3694 76.6057 62.5481 75.8644 61.5348 75.8643ZM40.784 75.427C39.7574 75.427 38.9252 76.2102 38.9252 77.1764C38.9252 78.1426 39.7574 78.9259 40.784 78.9259C41.8106 78.9259 42.6428 78.1426 42.6428 77.1764C42.6428 76.2102 41.8106 75.427 40.784 75.427ZM64.3375 76.077C64.3011 76.5144 64.4032 77.4547 65.1029 77.7171C69.039 77.5714 77.0206 77.236 77.4584 77.0611C77.7864 76.8424 78.2456 76.252 77.4584 75.6397L64.3375 76.077ZM56.137 62.9562C55.953 62.9559 55.5862 63.0212 55.5903 63.2842L55.809 77.1704C55.9547 77.3527 56.3119 77.6078 56.5743 77.1704L56.6837 63.2842L57.0117 62.9562H56.137ZM42.7974 74.7649C43.2348 75.0274 43.7086 76.5508 43.8908 77.2798L54.9342 77.3891V74.7649H52.7474V75.9677C52.6599 76.4925 52.2007 76.6966 51.982 76.7331H47.6084C47.346 76.733 46.9888 76.2228 46.843 75.9677V74.6556H42.7974V74.7649ZM57.2304 77.2798H57.7771C57.8646 74.7432 59.7088 73.8903 60.6199 73.7809H61.604C62.3912 73.7809 63.5357 74.7285 64.0095 75.2023H64.3375C64.0751 74.2401 62.9161 73.6351 62.3694 73.4529L57.2304 73.3435V77.2798ZM63.4628 56.0677C63.3534 55.849 62.8941 55.4335 61.932 55.521L53.1848 55.6303C51.8363 56.0677 49.1174 57.008 49.0298 57.2705L31.8634 57.8172C31.3531 57.7807 30.267 58.0797 30.0046 59.5666V73.8902H30.8793V76.2957C32.8838 76.6237 36.9363 77.2578 37.1117 77.1704C37.3304 77.0611 36.6744 76.077 38.4238 74.5463H36.1277V75.421C36.0548 75.6032 35.8434 75.9677 35.581 75.9677H31.754C31.5353 75.9677 31.098 75.8146 31.098 75.2023V71.2661C31.2073 71.0109 31.5135 70.5007 31.8634 70.5007H35.4716C35.7267 70.6464 36.2369 71.0036 36.237 71.2661V73.8902H39.0799C39.5537 73.6351 40.8512 73.2998 42.2507 73.9996H46.843V62.0814C46.843 61.6441 47.0399 60.7694 47.8271 60.7694H51.8727C52.1643 60.8422 52.7474 61.163 52.7474 61.8628C52.7474 62.5625 52.8203 70.3184 52.8568 74.1089H54.9342V63.0655C54.9343 62.8833 55.0655 62.4313 55.5903 62.0814H64.8842C65.6496 61.8263 66.9398 60.9443 65.9776 59.4573L63.4628 56.0677ZM29.6766 74.6556C29.5308 75.0565 29.3268 75.9239 29.6766 76.1864L30.2233 76.2957V74.6556H29.6766ZM48.0458 61.5347C47.8635 61.6076 47.4991 61.8191 47.4991 62.0814V75.6397C47.4991 75.7855 47.6085 76.077 48.0458 76.077H51.7634C51.8363 76.077 52.0039 75.9677 52.0914 75.5303V62.0814C52.0914 61.8992 52.0039 61.5347 51.654 61.5347H48.0458ZM32.0821 71.0474C31.4698 72.7093 31.8269 74.6556 32.0821 75.421H35.3623C35.8871 73.934 35.581 71.8856 35.3623 71.0474H32.0821ZM57.2304 72.5781L62.5881 72.6875C62.8505 72.6 64.0095 73.7444 64.5562 74.3276L64.4469 69.7353L63.2441 68.8606C63.1566 68.948 62.7703 69.1886 62.5881 69.2979H61.276C61.0136 69.2978 60.7293 68.8605 60.6199 68.6419H58.4331C58.1707 68.6418 57.9593 68.3503 57.8864 68.2045V64.0496C57.8865 63.8746 58.178 63.6122 58.3238 63.5029H61.8227C61.9976 63.5029 62.4058 63.8673 62.5881 64.0496L65.1029 68.4232V75.3117H68.1644V74.2182L67.2897 74.1089C66.2401 72.7094 66.8524 71.7034 67.2897 71.3754L68.0551 71.2661V70.938C67.6176 70.6098 65.5403 68.2045 65.4309 67.9858C65.3213 67.7667 63.6815 64.8149 63.4628 64.2683C63.2879 63.831 63.4628 63.5758 63.5721 63.5029H71.1166C71.2041 63.4154 70.7157 63.102 70.4606 62.9562H57.3397L57.2304 72.5781ZM66.9617 68.8606C67.5084 69.4072 68.6455 70.6537 68.8205 71.2661L69.8045 71.3754C70.4241 71.8492 71.3572 73.0592 70.1326 74.1089L68.9298 74.2182V75.3117L77.021 75.093V74.1089C76.693 74.0725 76.037 73.9777 76.037 73.8902C76.0367 73.7804 74.9439 71.8127 76.9117 71.3754V70.7193L74.7249 68.7512L66.9617 68.8606ZM67.5084 72.0314C67.3626 72.323 67.1586 73.0155 67.5084 73.4529H68.2738V72.0314H67.5084ZM68.8205 73.4529H69.9139C70.0961 73.2342 70.3294 72.6875 69.8045 72.2501L69.5859 72.0314H68.8205V73.4529ZM77.021 71.9221C76.9117 71.8128 76.8023 71.9221 76.4743 72.1408C76.212 72.3157 76.365 73.0155 76.4743 73.3435H77.021V71.9221ZM29.3485 67.3298C28.9112 67.2424 28.5832 67.8765 28.4738 68.2045V70.938C28.4738 71.2879 29.0569 71.6669 29.3485 71.8128V67.3298ZM58.7612 64.0496C58.4988 64.0496 58.3602 64.3412 58.3238 64.4869V67.5485C58.3238 67.8983 58.4696 68.0587 58.5425 68.0952H60.5106C60.6855 68.0952 60.7293 67.8765 60.7293 67.7672V66.2364C60.7293 65.8866 61.1666 65.799 61.3853 65.799H62.2601C62.6099 65.799 62.9161 66.1635 63.0254 66.3457V68.0952L64.4469 68.9699V68.7512C64.4467 68.423 63.0254 65.9083 62.9161 65.5803C62.8285 65.3179 62.0778 64.4505 61.7133 64.0496H58.7612ZM61.604 66.3457C61.5166 66.3458 61.4947 66.5644 61.4947 66.6737V68.4232C61.4947 68.5106 61.5675 68.6054 61.604 68.6419H62.2601C62.3475 68.6419 62.4423 68.4961 62.4787 68.4232V66.6737C62.4787 66.5863 62.3329 66.4186 62.2601 66.3457H61.604ZM64.1188 64.0496C64.702 65.2523 65.9557 67.7451 66.3057 68.0952C68.8568 68.1316 73.9809 68.1826 74.0688 68.0952C73.4492 66.9289 72.0788 64.5088 71.554 64.1589L64.1188 64.0496ZM74.7249 66.3457C74.5062 66.2364 74.1782 66.0178 74.1782 66.3457C74.1782 66.6081 74.5426 67.3298 74.7249 67.6578C74.7978 67.2569 74.8998 66.4332 74.7249 66.3457ZM63.9002 55.6303C64.957 56.9059 67.0707 59.5006 67.071 59.676V60.7694C67.071 61.2067 66.5608 61.8992 66.3057 62.1908L74.5062 62.4095C75.1185 62.4095 75.7089 61.6805 75.9276 61.3161C76.1026 61.0536 76.0734 60.4778 76.037 60.2227C76.0369 59.6978 74.2875 57.89 73.4128 57.0518C73.3252 56.8768 72.8661 56.6144 72.6474 56.5051C72.3841 56.3301 66.7063 55.849 63.9002 55.6303ZM40.1733 56.3957C38.278 56.4322 34.4657 56.5051 34.3782 56.5051C34.2906 56.5052 33.9773 56.7967 33.8315 56.9424L39.9546 56.8331C40.1295 56.7456 40.1733 56.5051 40.1733 56.3957ZM46.2963 55.9584C44.5996 55.9584 41.1964 55.9803 41.1573 56.0677C41.0844 56.2135 40.9606 56.5488 41.048 56.7238L47.1711 56.6144C47.0252 56.3957 46.6462 55.9584 46.2963 55.9584Z" fill="white"/>
<path d="M51.1616 83.9724C51.1616 83.8516 51.2595 83.7537 51.3802 83.7537H64.7198C64.8406 83.7537 64.9385 83.8516 64.9385 83.9724V84.1911C64.9385 84.3119 64.8406 84.4098 64.7198 84.4098H51.3802C51.2595 84.4098 51.1616 84.3119 51.1616 84.1911V83.9724Z" fill="white"/>
<path d="M69.7495 86.1592C69.7495 86.0384 69.8474 85.9405 69.9681 85.9405H76.5286C76.6493 85.9405 76.7472 86.0384 76.7472 86.1592V86.3779C76.7472 86.4987 76.6493 86.5966 76.5286 86.5966H69.9681C69.8474 86.5966 69.7495 86.4987 69.7495 86.3779V86.1592Z" fill="white"/>
<path d="M90.3055 80.0361C90.3055 79.9154 90.4034 79.8175 90.5242 79.8175H94.6791C94.7999 79.8175 94.8978 79.9154 94.8978 80.0361V80.4735C94.8978 80.5943 94.7999 80.6922 94.6791 80.6922H90.5242C90.4034 80.6922 90.3055 80.5943 90.3055 80.4735V80.0361Z" fill="white"/>
<path d="M21.4209 77.412C21.4209 77.2912 21.5188 77.1933 21.6396 77.1933H25.7945C25.9153 77.1933 26.0132 77.2912 26.0132 77.412V77.6307C26.0132 77.7514 25.9153 77.8493 25.7945 77.8493H21.6396C21.5188 77.8493 21.4209 77.7514 21.4209 77.6307V77.412Z" fill="white"/>
<path d="M37.1604 28.2571C37.173 28.137 37.2807 28.048 37.401 28.0582L41.5928 28.4156C41.7131 28.4259 41.8005 28.5316 41.7879 28.6517L41.7644 28.8762C41.7519 28.9963 41.6441 29.0854 41.5238 29.0751L37.332 28.7177C37.2117 28.7074 37.1243 28.6017 37.1369 28.4816L37.1604 28.2571Z" fill="white"/>
<path d="M34.8648 15.935C34.924 15.8298 35.061 15.7852 35.1708 15.8355L44.3863 20.057C44.4961 20.1073 44.5371 20.2335 44.4779 20.3387L44.3601 20.5482C44.3009 20.6534 44.1639 20.698 44.0541 20.6477L34.8387 16.4262C34.7289 16.3759 34.6878 16.2498 34.747 16.1445L34.8648 15.935Z" fill="white"/>
<path d="M44.7607 8.13496C44.8529 8.05702 44.9982 8.06179 45.0851 8.14562L50.4863 13.3534C50.5733 13.4372 50.569 13.5684 50.4767 13.6463L50.275 13.8167C50.1827 13.8947 50.0375 13.8899 49.9505 13.8061L44.5493 8.59828C44.4624 8.51445 44.4667 8.38331 44.5589 8.30537L44.7607 8.13496Z" fill="white"/>
<path d="M55.943 2.49674C56.0576 2.45855 56.1876 2.5182 56.2333 2.62998L58.9655 9.3068C59.0112 9.41857 58.9554 9.54015 58.8408 9.57834L58.5673 9.66952C58.4527 9.70771 58.3227 9.64805 58.277 9.53627L55.5448 2.85946C55.4991 2.74768 55.5549 2.6261 55.6695 2.58791L55.943 2.49674Z" fill="white"/>
<path d="M68.2579 0.00156289C68.3787 0.00219814 68.476 0.100618 68.4752 0.22139L68.4293 7.33302C68.4285 7.45379 68.33 7.55118 68.2092 7.55055L67.9126 7.54899C67.7919 7.54835 67.6946 7.44993 67.6954 7.32916L67.7413 0.217529C67.7421 0.0967577 67.8406 -0.000632157 67.9614 3.09006e-06L68.2579 0.00156289Z" fill="white"/>
<path d="M80.8234 2.3789C80.937 2.42 80.9893 2.54279 80.9402 2.65316L78.0048 9.2603C77.9558 9.37068 77.824 9.42683 77.7104 9.38574L77.4405 9.28805C77.3269 9.24695 77.2746 9.12416 77.3237 9.01379L80.259 2.40665C80.3081 2.29628 80.4399 2.24012 80.5534 2.28122L80.8234 2.3789Z" fill="white"/>
<path d="M91.5946 8.25659C91.6875 8.33385 91.6927 8.46496 91.6064 8.54944L86.2484 13.793C86.1621 13.8775 86.0169 13.8833 85.924 13.806L85.7207 13.6368C85.6278 13.5595 85.6226 13.4284 85.7089 13.3439L91.0669 8.10038C91.1532 8.0159 91.2984 8.01006 91.3913 8.08732L91.5946 8.25659Z" fill="white"/>
<path d="M101.175 16.3115C101.235 16.4163 101.195 16.5427 101.086 16.5938L92.2044 20.7487C92.095 20.7999 91.9576 20.7565 91.8974 20.6517L91.7775 20.4429C91.7173 20.3382 91.7573 20.2118 91.8667 20.1606L100.748 16.0058C100.857 15.9546 100.995 15.998 101.055 16.1027L101.175 16.3115Z" fill="white"/>
<path d="M99.703 28.4824C99.7123 28.6028 99.6221 28.7066 99.5016 28.7141L94.3842 29.0361C94.2637 29.0437 94.1585 28.9522 94.1492 28.8318L94.1318 28.6071C94.1225 28.4867 94.2127 28.3829 94.3332 28.3753L99.4505 28.0534C99.5711 28.0458 99.6763 28.1373 99.6856 28.2577L99.703 28.4824Z" fill="white"/>
<path fill-rule="evenodd" clip-rule="evenodd" d="M104.139 77.0796L103.527 77.6307L102.915 77.1898L87.4909 76.6388C87.3277 76.5654 87.0502 76.3964 87.246 76.3082C87.4419 76.2201 88.7966 74.3613 89.4495 73.443C88.3886 74.2879 86.2178 76.1319 86.0219 76.749C85.7363 76.896 85.1895 76.749 85.2874 74.9858C85.4506 74.7287 85.8505 74.4568 86.1443 75.4266C88.4294 73.4063 93.3913 68.2194 94.9582 63.6351C97.7329 64.0759 103.846 64.7812 106.098 64.0759C107.184 65.8859 108.858 68.6305 110.382 71.0337C111.952 73.5078 113.363 75.6199 113.81 75.9776C113.769 76.0878 113.639 76.3082 113.443 76.3082L104.139 77.0796ZM88.8374 75.8674L94.7134 65.9493V69.3655C94.7134 69.7182 93.1628 73.8471 92.3875 75.8674H88.8374ZM97.8961 75.9776C96.721 75.096 95.7743 69.0717 95.4479 66.1697L102.181 76.0878L97.8961 75.9776ZM96.0599 64.8473C96.4517 66.9631 101.038 73.0757 103.282 75.8674L103.772 74.9858H104.507L104.262 76.198L112.341 75.647C112.627 75.7572 113.027 75.8895 112.341 75.5368C111.656 75.1842 107.404 68.1901 105.363 64.7371C104.286 65.266 98.7122 65.0309 96.0599 64.8473Z" fill="white"/>
<path d="M115.524 74.545C115.328 74.6332 115.034 75.0225 114.912 75.2062L112.702 73.1124L110.382 71.0337L112.096 73.6634C114.055 74.4348 115.034 76.749 115.279 76.749C115.475 76.749 115.769 75.4266 115.891 74.7654C115.85 74.6552 115.72 74.4568 115.524 74.545Z" fill="white"/>
<path d="M100.802 80.0361C100.802 79.9154 100.9 79.8175 101.021 79.8175H112.392C112.513 79.8175 112.611 79.9154 112.611 80.0361V80.4735C112.611 80.5943 112.513 80.6922 112.392 80.6922H101.021C100.9 80.6922 100.802 80.5943 100.802 80.4735V80.0361Z" fill="white"/>
<path d="M76.3099 83.3164C76.3099 83.1956 76.4078 83.0977 76.5286 83.0977H91.3989C91.5197 83.0977 91.6176 83.1956 91.6176 83.3164V83.535C91.6176 83.6558 91.5197 83.7537 91.3989 83.7537H76.5286C76.4078 83.7537 76.3099 83.6558 76.3099 83.535V83.3164Z" fill="white"/>
<path d="M50.9439 16.1521C55.772 11.1696 62.1849 8.46409 68.8072 8.61594C75.4296 8.76785 81.734 11.7652 86.3686 16.9647C90.2469 21.3158 92.697 26.9193 93.3935 32.897H92.2926C91.6016 27.1806 89.2472 21.8373 85.5524 17.6921C81.1077 12.7057 75.0842 9.85368 68.782 9.70913C62.4802 9.56465 56.3565 12.1376 51.7292 16.913C47.3414 21.4412 44.6347 27.6069 44.136 34.2106C43.7264 34.5187 43.3424 34.8354 42.9854 35.1601C43.2813 28.0427 46.051 21.324 50.7191 16.387L50.9439 16.1521Z" fill="white"/>
<path fill-rule="evenodd" clip-rule="evenodd" d="M124.559 37.5157C124.8 38.9553 125.66 40.9941 126.643 42.9663C127.625 44.935 128.724 46.8253 129.436 47.9635L129.567 48.173L129.324 48.1292C129.02 48.0742 128.55 47.9972 128.134 47.9451C127.926 47.919 127.732 47.8995 127.58 47.8917C127.504 47.8879 127.44 47.8871 127.39 47.8896C127.39 47.8896 127.389 47.8896 127.388 47.8896C127.395 47.9053 127.403 47.9236 127.414 47.944C127.467 48.0524 127.557 48.2079 127.678 48.4013C127.917 48.7872 128.27 49.3141 128.672 49.897C129.475 51.0624 130.472 52.447 131.144 53.3664L131.29 53.5657L131.044 53.5396C130.698 53.5029 130.16 53.4478 129.673 53.4019C129.279 53.3648 128.924 53.3344 128.726 53.3237C128.729 53.3311 128.731 53.3393 128.735 53.3477C128.783 53.4583 128.871 53.6231 128.991 53.8318C129.232 54.2477 129.595 54.8254 130.013 55.4689C130.849 56.7556 131.9 58.3003 132.614 59.3302L132.755 59.5339L132.509 59.5008C132.102 59.4458 131.474 59.3686 130.911 59.3163C130.63 59.2902 130.366 59.2703 130.155 59.2625C130.05 59.2586 129.959 59.2579 129.886 59.2606C129.859 59.2616 129.836 59.2631 129.816 59.2649C129.824 59.2868 129.835 59.3143 129.85 59.3473C129.907 59.4732 130.008 59.6551 130.145 59.882C130.418 60.3348 130.827 60.9544 131.296 61.6407C132.234 63.0128 133.407 64.6459 134.202 65.7309L134.349 65.9308L131.162 65.5855C131.172 65.6153 131.186 65.6526 131.206 65.6972C131.27 65.8382 131.38 66.0326 131.529 66.2699C131.827 66.7435 132.27 67.3745 132.777 68.0657C133.791 69.4476 135.056 71.0636 135.912 72.1301L136 72.2401L135.871 72.2982C135.732 72.361 135.552 72.395 135.346 72.4094C135.14 72.4239 134.9 72.419 134.639 72.399C134.116 72.3588 133.495 72.2578 132.853 72.1263C131.654 71.8805 130.371 71.5255 129.491 71.2543L129.858 72.9109L126.28 71.7974L126.517 76.4984L126.521 76.584L126.439 76.6086L125.197 76.9821V71.149L124.564 70.6728L123.704 71.1584V77.4767L123.616 77.4942L122.378 77.7426L122.629 71.9729V71.7816C121.7 71.9877 119.837 72.5732 118.98 72.8543L118.655 72.9613L118.858 72.6856C119.038 72.4424 119.137 72.0957 119.184 71.7504C119.22 71.4824 119.224 71.2235 119.215 71.0303C116.231 72.216 113.726 72.2337 112.817 72.0861C112.817 72.0861 112.817 72.0861 112.816 72.0861C112.815 72.0859 112.814 72.0857 112.813 72.0855L112.844 71.8691C112.858 71.8708 112.887 71.8682 112.937 71.8446C112.985 71.8216 113.044 71.7831 113.114 71.728C113.253 71.6178 113.422 71.4502 113.613 71.2351C113.994 70.8056 114.456 70.1994 114.94 69.5187C115.86 68.225 116.854 66.6711 117.528 65.5735H114.543L114.498 65.3647C114.52 65.3546 114.555 65.3312 114.604 65.2891C114.652 65.248 114.707 65.1931 114.77 65.125C114.896 64.9888 115.048 64.8043 115.22 64.582C115.563 64.1375 115.979 63.5475 116.415 62.9024C117.237 61.6884 118.13 60.2833 118.741 59.2945C117.862 59.3518 116.575 59.4389 116.132 59.4793V59.1732C116.168 59.1366 116.208 59.0925 116.252 59.0402C116.365 58.9058 116.501 58.7253 116.655 58.5082C116.962 58.0744 117.336 57.5006 117.73 56.8724C118.475 55.6837 119.29 54.3044 119.858 53.3195H117.513L121.321 47.886L119.496 47.6506L119.742 47.4885C119.859 47.4122 120.005 47.2513 120.177 47.0078C120.346 46.7672 120.533 46.4557 120.732 46.0895C121.13 45.3572 121.573 44.4131 122.017 43.3936C122.906 41.355 123.798 39.0224 124.348 37.4967L124.489 37.104L124.559 37.5157ZM124.455 41.0842C124.397 41.2235 124.317 41.4035 124.22 41.6136C124.027 42.0342 123.764 42.5796 123.475 43.1702C122.93 44.2803 122.287 45.5529 121.822 46.465L123.481 46.358L123.457 46.4944C123.405 46.7996 123.226 47.2254 122.978 47.7057C122.729 48.1894 122.404 48.7395 122.054 49.2969C121.428 50.2918 120.717 51.3145 120.193 52.0343C120.199 52.0331 120.206 52.0319 120.212 52.0307C120.362 52.0008 120.548 51.9689 120.746 51.9375C121.14 51.8748 121.582 51.8138 121.868 51.7769L122.022 51.7571L121.989 51.9091C121.893 52.3397 121.603 52.966 121.235 53.6503C120.864 54.3381 120.408 55.0958 119.972 55.7935C119.535 56.4913 119.118 57.1304 118.826 57.5803C118.727 57.732 118.643 57.8619 118.578 57.9652C118.65 57.9466 118.731 57.9287 118.819 57.912C119.075 57.8628 119.393 57.8211 119.701 57.7932C120.009 57.7655 120.312 57.7511 120.54 57.7582C120.653 57.7617 120.753 57.7706 120.828 57.7877C120.864 57.796 120.902 57.8081 120.934 57.8276C120.965 57.8466 121.013 57.8878 121.013 57.9573C121.013 57.975 121.009 57.9903 121.007 57.9983C121.004 58.0078 121 58.0172 120.997 58.0258C120.99 58.0432 120.981 58.0637 120.97 58.0858C120.948 58.1303 120.916 58.1888 120.877 58.2588C120.797 58.3994 120.683 58.5919 120.542 58.8234C120.26 59.2868 119.869 59.9099 119.436 60.5936C118.625 61.8734 117.662 63.3672 116.973 64.4284L120.034 63.8762L115.391 70.9329C118.648 70.2529 120.396 69.7332 120.865 69.557L121.061 69.4831L120.646 71.108V71.2142C120.67 71.209 120.7 71.2012 120.736 71.1896C120.85 71.153 121.004 71.088 121.188 71.0023C121.554 70.8312 122.021 70.5842 122.488 70.3356C122.953 70.0878 123.418 69.8382 123.774 69.6646C123.951 69.5781 124.105 69.5085 124.221 69.4675C124.277 69.4473 124.331 69.4317 124.376 69.4263C124.398 69.4236 124.426 69.4222 124.453 69.4284C124.48 69.4344 124.517 69.4504 124.541 69.488C124.542 69.4887 124.543 69.4904 124.546 69.4925C124.553 69.4985 124.563 69.5072 124.579 69.5183C124.611 69.5406 124.656 69.5691 124.714 69.6029C124.83 69.6703 124.99 69.7553 125.18 69.8515C125.561 70.0437 126.056 70.2778 126.544 70.4981C127.033 70.7185 127.513 70.9246 127.862 71.0617C128.003 71.1171 128.122 71.1601 128.209 71.1885C128.201 71.1523 128.192 71.1125 128.184 71.07C128.159 70.9408 128.135 70.7817 128.113 70.6147C128.069 70.2805 128.032 69.909 128.011 69.6687L127.998 69.5093L133.461 71.117C133.414 71.0519 133.363 70.9779 133.306 70.8964C133.139 70.6528 132.927 70.3354 132.687 69.9713C132.207 69.2428 131.614 68.3245 131.04 67.4274C130.467 66.5303 129.912 65.6537 129.509 65.0082C129.307 64.6856 129.143 64.4203 129.033 64.239C128.978 64.1486 128.936 64.078 128.91 64.0316C128.897 64.0092 128.886 63.9897 128.879 63.9759C128.878 63.9723 128.876 63.9676 128.874 63.9629C128.873 63.9601 128.868 63.9492 128.866 63.9357C128.865 63.9312 128.862 63.9095 128.87 63.8839C128.875 63.8704 128.894 63.8429 128.908 63.8303C128.925 63.8197 128.96 63.809 128.976 63.808C129.008 63.8086 129.03 63.8232 129.034 63.8256C129.041 63.8303 129.047 63.8351 129.05 63.8375C129.045 63.8337 129.042 63.8312 129.04 63.83C129.042 63.8312 129.047 63.8336 129.055 63.8367C129.072 63.8429 129.096 63.8508 129.127 63.8602C129.19 63.8788 129.277 63.9014 129.384 63.9272C129.597 63.9787 129.883 64.0413 130.197 64.107C130.703 64.2127 131.281 64.3257 131.741 64.4139C131.547 64.1742 131.316 63.8474 131.065 63.4666C130.712 62.9306 130.314 62.2802 129.913 61.5988C129.11 60.2359 128.289 58.7449 127.779 57.7879L127.664 57.5718L130.286 58.2172C128.78 56.2474 127.344 53.2348 126.796 51.9277L126.719 51.7445L128.578 52.0591C127.877 51.1901 127.078 49.8104 126.449 48.6249C126.104 47.9749 125.809 47.3799 125.608 46.954C125.507 46.7413 125.429 46.5697 125.38 46.4543C125.356 46.3974 125.338 46.3513 125.328 46.3202C125.324 46.3082 125.317 46.2866 125.315 46.2661C125.315 46.2604 125.314 46.2476 125.317 46.2322C125.32 46.2194 125.331 46.1799 125.373 46.157C125.417 46.1331 125.458 46.1476 125.472 46.154C125.483 46.1589 125.491 46.1648 125.496 46.1692C125.497 46.1696 125.5 46.1713 125.507 46.1741C125.519 46.179 125.536 46.1852 125.559 46.192C125.605 46.2058 125.668 46.221 125.743 46.2371C125.893 46.2692 126.085 46.3034 126.281 46.3358C126.51 46.3736 126.747 46.4093 126.918 46.4357C126.904 46.4084 126.888 46.3788 126.871 46.3471C126.788 46.1852 126.679 45.9642 126.554 45.7041C126.304 45.1835 125.987 44.5023 125.673 43.8137C125.358 43.125 125.045 42.4281 124.802 41.8759C124.66 41.5512 124.54 41.273 124.458 41.0761C124.457 41.0788 124.456 41.0815 124.455 41.0842ZM128.917 64.0101L128.917 64.0103C128.913 64.0071 128.908 64.0038 128.903 63.9998C128.905 64.0015 128.91 64.0057 128.917 64.0101Z" fill="white"/>
<path fill-rule="evenodd" clip-rule="evenodd" d="M11.6522 37.4967C12.2022 39.0224 13.0942 41.355 13.9828 43.3936C14.4272 44.4131 14.8699 45.3573 15.268 46.0895C15.467 46.4557 15.6538 46.7672 15.8232 47.0078C15.9946 47.2513 16.1413 47.4122 16.2576 47.4885L16.5044 47.6506L14.6785 47.886L18.4871 53.3195H16.142C16.7096 54.3044 17.5246 55.6837 18.2701 56.8724C18.6641 57.5006 19.0379 58.0744 19.3452 58.5082C19.4988 58.7252 19.6349 58.9058 19.7477 59.0402C19.8041 59.1074 19.8538 59.1619 19.8961 59.2031C19.927 59.2332 19.9518 59.2539 19.9705 59.2672C19.976 59.2673 19.9824 59.2671 19.9895 59.2672V59.4861C19.9791 59.4859 19.9702 59.486 19.9628 59.4859C19.954 59.4857 19.947 59.4856 19.9421 59.4855C19.9397 59.4854 19.9371 59.4853 19.935 59.4852C19.9338 59.4852 19.9317 59.4851 19.9303 59.485C19.93 59.485 19.9295 59.4847 19.9288 59.4846C19.9281 59.4846 19.9275 59.4847 19.9269 59.4846C19.5534 59.4473 18.1818 59.3546 17.2585 59.2945C17.8701 60.2833 18.7626 61.6884 19.5846 62.9024C20.0214 63.5475 20.4373 64.1375 20.78 64.582C20.9515 64.8043 21.1035 64.9888 21.2298 65.125C21.2929 65.1931 21.3485 65.248 21.3959 65.2891C21.4446 65.3312 21.48 65.3546 21.5023 65.3647L21.4572 65.5735H18.4724C19.1456 66.6711 20.1404 68.225 21.0602 69.5187C21.5442 70.1994 22.0056 70.8056 22.3873 71.2351C22.5784 71.4502 22.7468 71.6178 22.8859 71.728C22.9555 71.7831 23.0148 71.8216 23.0634 71.8446C23.1134 71.8682 23.1424 71.8708 23.1556 71.8691L23.1875 72.0855C23.1862 72.0857 23.1849 72.0857 23.1836 72.0859C23.1833 72.0859 23.183 72.0861 23.1828 72.0861C22.2744 72.2337 19.7695 72.216 16.7853 71.0303C16.776 71.2235 16.78 71.4824 16.8164 71.7504C16.8634 72.0957 16.9621 72.4424 17.1417 72.6856L17.3454 72.9613L17.0195 72.8543C16.1631 72.5732 14.3002 71.9877 13.3712 71.7816V71.9729L13.6219 77.7426L12.3841 77.4942L12.2963 77.4767V71.1584L11.4357 70.6728L10.8025 71.149V76.9821L9.56068 76.6086L9.47867 76.584L9.48316 76.4984L9.71999 71.7974L6.14208 72.9109L6.50918 71.2543C5.62879 71.5255 4.34587 71.8804 3.14653 72.1263C2.5048 72.2578 1.88432 72.3588 1.3612 72.399C1.09971 72.419 0.860394 72.4239 0.653694 72.4094C0.448437 72.395 0.26802 72.361 0.128774 72.2982L0 72.2401L0.0884121 72.1301C0.944091 71.0636 2.20902 69.4476 3.22298 68.0657C3.7302 67.3744 4.17326 66.7435 4.47079 66.2699C4.61992 66.0326 4.73036 65.8382 4.79411 65.6972C4.81427 65.6525 4.82833 65.6153 4.83789 65.5855L1.65143 65.9308L1.79793 65.7309C2.59262 64.6459 3.76612 63.0128 4.70399 61.6407C5.1731 60.9543 5.58232 60.3348 5.85549 59.882C5.99244 59.655 6.0932 59.4732 6.15041 59.3473C6.16541 59.3142 6.17649 59.2868 6.18436 59.2649C6.16447 59.2631 6.14104 59.2616 6.11389 59.2606C6.04136 59.2579 5.95049 59.2586 5.84502 59.2625C5.63416 59.2703 5.37031 59.2902 5.08882 59.3163C4.5261 59.3686 3.89773 59.4458 3.491 59.5008L3.24519 59.5339L3.38635 59.3302C4.09956 58.3003 5.15098 56.7556 5.98704 55.4689C6.40519 54.8253 6.76849 54.2477 7.00869 53.8318C7.1292 53.6231 7.21685 53.4583 7.26495 53.3477C7.26858 53.3393 7.27132 53.3311 7.27435 53.3237C7.07651 53.3344 6.72103 53.3648 6.32744 53.4019C5.83974 53.4478 5.30184 53.5029 4.95556 53.5396L4.71019 53.5657L4.85583 53.3664C5.52824 52.4469 6.52451 51.0624 7.32795 49.897C7.72983 49.3141 8.08271 48.7872 8.32248 48.4013C8.44264 48.2079 8.53271 48.0524 8.58644 47.944C8.59657 47.9236 8.6047 47.9053 8.61164 47.8896C8.61109 47.8896 8.61048 47.8896 8.60993 47.8896C8.56044 47.8871 8.4964 47.8879 8.42008 47.8917C8.26769 47.8995 8.07428 47.919 7.8659 47.9451C7.44951 47.9972 6.98052 48.0742 6.67597 48.1292L6.43294 48.173L6.56385 47.9635C7.27579 46.8253 8.37489 44.935 9.35673 42.9663C10.3403 40.9941 11.1998 38.9553 11.4415 37.5157L11.5107 37.104L11.6522 37.4967ZM11.5416 41.0761C11.4599 41.273 11.3404 41.5512 11.1976 41.8759C10.9547 42.4281 10.6417 43.125 10.3271 43.8137C10.0126 44.5023 9.69603 45.1834 9.446 45.7041C9.32105 45.9642 9.21239 46.1852 9.12866 46.3471C9.11224 46.3788 9.09646 46.4084 9.08189 46.4357C9.25353 46.4093 9.49019 46.3736 9.71914 46.3358C9.91474 46.3034 10.1072 46.2692 10.2571 46.2371C10.3322 46.221 10.3948 46.2058 10.441 46.192C10.4641 46.1851 10.4813 46.179 10.4931 46.1741C10.5001 46.1712 10.5031 46.1694 10.5035 46.1692C10.5091 46.1648 10.5173 46.1589 10.5279 46.154C10.5419 46.1476 10.5826 46.1331 10.627 46.157C10.6693 46.1799 10.68 46.2194 10.6827 46.2322C10.6859 46.2476 10.6853 46.2604 10.6848 46.2661C10.6833 46.2866 10.6764 46.3082 10.6724 46.3202C10.6621 46.3513 10.6438 46.3973 10.6197 46.4543C10.5708 46.5697 10.4931 46.7413 10.3925 46.954C10.1911 47.3799 9.89605 47.9749 9.55128 48.6249C8.92243 49.8104 8.12254 51.1901 7.4217 52.0591L9.28071 51.7445L9.20383 51.9277C8.65583 53.2348 7.21999 56.2474 5.71433 58.2172L8.33615 57.5718L8.22083 57.7879C7.71063 58.7449 6.89036 60.2359 6.08719 61.5988C5.68564 62.2802 5.28778 62.9306 4.93485 63.4666C4.68404 63.8475 4.45317 64.1742 4.25852 64.4139C4.7194 64.3257 5.29668 64.2127 5.80252 64.107C6.11714 64.0413 6.40323 63.9787 6.61638 63.9272C6.72315 63.9014 6.81034 63.8788 6.87308 63.8602C6.90457 63.8508 6.92834 63.8429 6.94462 63.8367C6.95274 63.8335 6.95763 63.8312 6.96 63.83C6.95821 63.8312 6.95466 63.8337 6.95039 63.8375C6.9531 63.8351 6.95866 63.8303 6.96619 63.8256C6.96997 63.8231 6.99187 63.8086 7.02385 63.808C7.04042 63.809 7.07513 63.8197 7.09197 63.8303C7.10595 63.8429 7.1246 63.8704 7.12999 63.8839C7.13831 63.9095 7.13476 63.9312 7.13404 63.9357C7.13189 63.9492 7.12747 63.9601 7.12636 63.9629C7.12445 63.9676 7.12232 63.9723 7.12059 63.9759C7.11396 63.9897 7.10327 64.0092 7.09048 64.0316C7.06404 64.078 7.02214 64.1486 6.96726 64.239C6.85722 64.4203 6.69291 64.6856 6.49124 65.0082C6.08776 65.6537 5.5333 66.5303 4.95983 67.4274C4.38634 68.3245 3.79343 69.2428 3.31332 69.9713C3.0733 70.3355 2.86116 70.6527 2.69358 70.8964C2.63749 70.9779 2.58567 71.0518 2.53939 71.117L8.00236 69.5093L7.98869 69.6687C7.96821 69.909 7.93136 70.2805 7.88726 70.6147C7.86522 70.7817 7.84128 70.9408 7.81635 71.07C7.80815 71.1125 7.79932 71.1523 7.79073 71.1885C7.87851 71.1601 7.99661 71.1171 8.13797 71.0617C8.48725 70.9246 8.96714 70.7185 9.45561 70.4981C9.94394 70.2777 10.4392 70.0437 10.8196 69.8515C11.0099 69.7553 11.1703 69.6703 11.286 69.6029C11.344 69.5691 11.3892 69.5406 11.4207 69.5183C11.4366 69.5071 11.4475 69.4985 11.4543 69.4925C11.4567 69.4903 11.4581 69.4887 11.4588 69.488C11.4831 69.4504 11.5199 69.4344 11.5467 69.4284C11.5744 69.4222 11.602 69.4236 11.6241 69.4263C11.669 69.4318 11.7226 69.4473 11.7793 69.4675C11.8946 69.5085 12.0487 69.5781 12.2261 69.6646C12.5819 69.8382 13.0468 70.0878 13.5121 70.3356C13.9789 70.5842 14.4464 70.8313 14.8122 71.0023C14.9956 71.0881 15.1498 71.153 15.2637 71.1896C15.2997 71.2012 15.3299 71.209 15.3542 71.2142V71.108L14.9387 69.4831L15.1351 69.557C15.6039 69.7332 17.3517 70.2529 20.6086 70.9329L15.9661 63.8762L19.0265 64.4284C18.3381 63.3672 17.3749 61.8734 16.5638 60.5936C16.1305 59.9099 15.7401 59.2868 15.458 58.8234C15.3171 58.5919 15.2026 58.3994 15.1232 58.2588C15.0836 58.1888 15.052 58.1303 15.0301 58.0858C15.0192 58.0637 15.0098 58.0432 15.0029 58.0258C14.9995 58.0172 14.996 58.0077 14.9933 57.9983C14.9911 57.9903 14.9874 57.975 14.9873 57.9573C14.9873 57.8877 15.0348 57.8466 15.0657 57.8276C15.0977 57.8081 15.1362 57.796 15.1725 57.7877C15.247 57.7706 15.3473 57.7617 15.4602 57.7582C15.688 57.7511 15.991 57.7654 16.299 57.7932C16.6074 57.8211 16.9247 57.8628 17.1814 57.912C17.2688 57.9287 17.3502 57.9466 17.4223 57.9652C17.3565 57.8619 17.2726 57.732 17.1742 57.5803C16.8819 57.1304 16.4647 56.4913 16.0284 55.7935C15.5922 55.0959 15.1357 54.3381 14.7652 53.6503C14.3967 52.966 14.1068 52.3397 14.0114 51.9091L13.9777 51.7571L14.1321 51.7769C14.4182 51.8138 14.8597 51.8748 15.2545 51.9375C15.4518 51.9689 15.6384 52.0008 15.7884 52.0307C15.7945 52.0319 15.8006 52.0331 15.8065 52.0343C15.2832 51.3145 14.5715 50.2918 13.946 49.2969C13.5956 48.7395 13.2712 48.1894 13.0218 47.7057C12.7741 47.2254 12.5946 46.7996 12.5426 46.4944L12.5193 46.358L14.1782 46.465C13.7127 45.5529 13.0702 44.2803 12.5255 43.1702C12.2357 42.5796 11.9733 42.0342 11.7795 41.6136C11.6827 41.4035 11.6026 41.2235 11.5448 41.0842C11.5437 41.0815 11.5427 41.0787 11.5416 41.0761ZM7.08279 64.0103C7.083 64.0101 7.08328 64.0101 7.08343 64.0101C7.09031 64.0057 7.09512 64.0014 7.09689 63.9998C7.09238 64.0039 7.08732 64.0071 7.08279 64.0103Z" fill="white"/>
</svg>
